<svg xmlns="http://www.w3.org/2000/svg" xmlns:xlink="http://www.w3.org/1999/xlink" width="500" zoomAndPan="magnify" viewBox="0 0 375 374.999991" height="500" preserveAspectRatio="xMidYMid meet" version="1.0"><defs><clipPath id="48e5cd5480"><path d="M 187.5 0 C 83.945312 0 0 83.945312 0 187.5 C 0 291.054688 83.945312 375 187.5 375 C 291.054688 375 375 291.054688 375 187.5 C 375 83.945312 291.054688 0 187.5 0 Z M 187.5 0 " clip-rule="nonzero"/></clipPath><clipPath id="b6d5fb2028"><path d="M 0 0 L 375 0 L 375 375 L 0 375 Z M 0 0 " clip-rule="nonzero"/></clipPath><clipPath id="2eda029352"><path d="M 187.5 0 C 83.945312 0 0 83.945312 0 187.5 C 0 291.054688 83.945312 375 187.5 375 C 291.054688 375 375 291.054688 375 187.5 C 375 83.945312 291.054688 0 187.5 0 Z M 187.5 0 " clip-rule="nonzero"/></clipPath><clipPath id="05bb978316"><rect x="0" width="375" y="0" height="375"/></clipPath><clipPath id="eafe3380f9"><path d="M 51.136719 82.152344 L 307.636719 82.152344 L 307.636719 292.902344 L 51.136719 292.902344 Z M 51.136719 82.152344 " clip-rule="nonzero"/></clipPath></defs><g clip-path="url(#48e5cd5480)"><g transform="matrix(1, 0, 0, 1, 0, 0)"><g clip-path="url(#05bb978316)"><g clip-path="url(#b6d5fb2028)"><g clip-path="url(#2eda029352)"><rect x="-82.5" width="540" fill="#d8a527" height="539.999987" y="-82.499998" fill-opacity="1"/></g></g></g></g></g><path fill="#000000" d="M 269.71875 156.996094 C 269.671875 152.417969 266.953125 150.09375 262.675781 149.46875 C 260.699219 149.191406 258.675781 149.253906 256.679688 149.253906 C 238.242188 149.226562 219.824219 149.238281 201.398438 149.238281 L 201.398438 149.371094 C 188.769531 149.371094 176.160156 149.359375 163.53125 149.371094 C 157.425781 149.386719 138.085938 149.335938 131.980469 149.421875 L 136.738281 164.628906 C 172.664062 164.652344 221.867188 164.640625 257.796875 164.617188 C 259.402344 164.617188 261.027344 164.675781 262.589844 164.410156 C 266.757812 163.726562 269.777344 161.714844 269.71875 156.996094 Z M 269.71875 156.996094 " fill-opacity="1" fill-rule="evenodd"/><path fill="#000000" d="M 253.1875 182.425781 C 251.414062 182.1875 249.585938 182.210938 247.789062 182.210938 C 217.015625 182.171875 172.992188 182.148438 142.214844 182.136719 L 146.9375 197.222656 C 160.890625 197.273438 188.101562 197.246094 202.070312 197.246094 C 217.292969 197.246094 232.515625 197.261719 247.730469 197.246094 C 249.539062 197.246094 251.367188 197.296875 253.125 197.019531 C 257.160156 196.367188 259.796875 194.191406 259.640625 189.808594 C 259.484375 185.703125 257.425781 182.992188 253.1875 182.425781 Z M 253.1875 182.425781 " fill-opacity="1" fill-rule="evenodd"/><g clip-path="url(#eafe3380f9)"><path fill="#000000" d="M 285.609375 116.609375 C 235.425781 116.679688 171.980469 116.765625 121.792969 116.851562 L 126.550781 132.058594 C 161.058594 132.058594 208.828125 131.984375 243.335938 131.960938 C 257.582031 131.949219 271.828125 131.910156 286.070312 132.035156 C 291.707031 132.082031 293.175781 133.898438 291.683594 139.042969 C 285.554688 160.21875 279.242188 181.34375 273.113281 202.523438 C 271.429688 208.359375 267.722656 211.011719 261.726562 211.191406 C 251.898438 211.503906 242.082031 212.058594 232.257812 212.515625 C 201.601562 213.960938 170.945312 215.308594 140.289062 216.886719 C 138.453125 216.980469 136.691406 217.28125 135.019531 217.75 C 125.785156 186.09375 111.722656 135.839844 103.335938 106.769531 C 100.792969 97.945312 95.015625 91.578125 86.195312 88.804688 C 78.175781 86.285156 69.945312 84.417969 61.738281 82.566406 C 56.859375 81.46875 52.859375 82.964844 51.445312 88.277344 C 50.164062 93.089844 52.847656 96.433594 58.808594 97.785156 C 65.253906 99.242188 71.753906 100.449219 78.148438 102.105469 C 84.019531 103.625 87.515625 107.417969 89.222656 113.507812 C 95.222656 134.917969 101.613281 156.21875 107.824219 177.570312 C 110.347656 186.242188 118.34375 214.269531 122.019531 227.09375 C 118.117188 232.789062 116.628906 240.210938 118.652344 247.652344 C 120.589844 254.777344 124.925781 259.304688 130.761719 262.339844 C 131.476562 262.714844 132.199219 263.066406 132.953125 263.386719 C 135.566406 264.15625 141.265625 265.125 153.574219 265.429688 C 149.1875 267.960938 146.222656 272.6875 146.222656 278.121094 C 146.222656 286.210938 152.78125 292.769531 160.871094 292.769531 C 168.960938 292.769531 175.519531 286.210938 175.519531 278.121094 C 175.519531 272.542969 172.398438 267.695312 167.8125 265.222656 L 220.882812 265.222656 L 234.890625 265.078125 C 230.152344 267.507812 226.898438 272.429688 226.898438 278.121094 C 226.898438 286.210938 233.457031 292.769531 241.542969 292.769531 C 249.636719 292.769531 256.199219 286.210938 256.199219 278.121094 C 256.199219 272.316406 252.820312 267.324219 247.929688 264.945312 L 260.675781 264.824219 C 260.664062 264.796875 260.664062 264.777344 260.652344 264.746094 L 267.453125 264.746094 C 275.765625 264.738281 279.4375 262.390625 279.363281 257.132812 C 279.28125 251.921875 275.800781 249.863281 267.226562 249.863281 C 225.898438 249.890625 184.5625 249.914062 143.242188 249.878906 C 136.703125 249.863281 132.742188 246.28125 132.75 240.824219 C 132.773438 235.332031 136.183594 232.097656 142.566406 231.792969 C 182.035156 229.941406 221.503906 228.035156 260.980469 226.339844 C 277.125 225.640625 283.097656 221.523438 287.863281 205.871094 C 294.125 185.351562 300.027344 164.738281 306.191406 144.207031 C 311.226562 127.433594 303.21875 116.597656 285.609375 116.609375 Z M 285.609375 116.609375 " fill-opacity="1" fill-rule="evenodd"/></g></svg>