<svg xmlns="http://www.w3.org/2000/svg" xmlns:xlink="http://www.w3.org/1999/xlink" width="500" zoomAndPan="magnify" viewBox="0 0 375 374.999991" height="500" preserveAspectRatio="xMidYMid meet" version="1.0"><defs><clipPath id="d4e5ac8d03"><path d="M 187.5 0 C 83.945312 0 0 83.945312 0 187.5 C 0 291.054688 83.945312 375 187.5 375 C 291.054688 375 375 291.054688 375 187.5 C 375 83.945312 291.054688 0 187.5 0 Z M 187.5 0 " clip-rule="nonzero"/></clipPath><clipPath id="eeb5d77950"><path d="M 0 0 L 375 0 L 375 375 L 0 375 Z M 0 0 " clip-rule="nonzero"/></clipPath><clipPath id="3806be73f8"><path d="M 187.5 0 C 83.945312 0 0 83.945312 0 187.5 C 0 291.054688 83.945312 375 187.5 375 C 291.054688 375 375 291.054688 375 187.5 C 375 83.945312 291.054688 0 187.5 0 Z M 187.5 0 " clip-rule="nonzero"/></clipPath><clipPath id="b71e356cda"><rect x="0" width="375" y="0" height="375"/></clipPath><clipPath id="0b0eccc1e7"><path d="M 72.613281 87.261719 L 302.113281 87.261719 L 302.113281 129 L 72.613281 129 Z M 72.613281 87.261719 " clip-rule="nonzero"/></clipPath><clipPath id="d0d78ed799"><path d="M 72.613281 167 L 302.113281 167 L 302.113281 208 L 72.613281 208 Z M 72.613281 167 " clip-rule="nonzero"/></clipPath><clipPath id="f26ca7234e"><path d="M 72.613281 246 L 302.113281 246 L 302.113281 287.511719 L 72.613281 287.511719 Z M 72.613281 246 " clip-rule="nonzero"/></clipPath></defs><g clip-path="url(#d4e5ac8d03)"><g transform="matrix(1, 0, 0, 1, 0, 0)"><g clip-path="url(#b71e356cda)"><g clip-path="url(#eeb5d77950)"><g clip-path="url(#3806be73f8)"><rect x="-82.5" width="540" fill="#d8a627" height="539.999987" y="-82.499998" fill-opacity="1"/></g></g></g></g></g><g clip-path="url(#0b0eccc1e7)"><path fill="#000000" d="M 92.980469 128.035156 L 281.746094 128.035156 C 292.992188 128.035156 302.113281 118.914062 302.113281 107.664062 C 302.113281 96.417969 292.992188 87.296875 281.746094 87.296875 L 92.980469 87.296875 C 81.734375 87.296875 72.613281 96.414062 72.613281 107.664062 C 72.613281 118.914062 81.734375 128.035156 92.980469 128.035156 Z M 92.980469 128.035156 " fill-opacity="1" fill-rule="nonzero"/></g><g clip-path="url(#d0d78ed799)"><path fill="#000000" d="M 281.746094 167.015625 L 92.980469 167.015625 C 81.734375 167.015625 72.613281 176.136719 72.613281 187.386719 C 72.613281 198.636719 81.734375 207.753906 92.980469 207.753906 L 281.746094 207.753906 C 292.992188 207.753906 302.113281 198.636719 302.113281 187.386719 C 302.113281 176.136719 292.992188 167.015625 281.746094 167.015625 Z M 281.746094 167.015625 " fill-opacity="1" fill-rule="nonzero"/></g><g clip-path="url(#f26ca7234e)"><path fill="#000000" d="M 281.746094 246.738281 L 92.980469 246.738281 C 81.734375 246.738281 72.613281 255.855469 72.613281 267.105469 C 72.613281 278.355469 81.734375 287.476562 92.980469 287.476562 L 281.746094 287.476562 C 292.992188 287.476562 302.113281 278.355469 302.113281 267.105469 C 302.113281 255.859375 292.992188 246.738281 281.746094 246.738281 Z M 281.746094 246.738281 " fill-opacity="1" fill-rule="nonzero"/></g></svg>