<svg xmlns="http://www.w3.org/2000/svg" xmlns:xlink="http://www.w3.org/1999/xlink" width="140" zoomAndPan="magnify" viewBox="0 0 104.88 30.000001" height="40" preserveAspectRatio="xMidYMid meet" version="1.0"><defs><g/><clipPath id="bf2515c000"><path d="M 3 0 L 53 0 L 53 29.03125 L 3 29.03125 Z M 3 0 " clip-rule="nonzero"/></clipPath><clipPath id="6b2f9c090a"><path d="M 0.257812 1 L 20 1 L 20 27 L 0.257812 27 Z M 0.257812 1 " clip-rule="nonzero"/></clipPath><clipPath id="2ee839e628"><path d="M 26 0 L 39 0 L 39 29 L 26 29 Z M 26 0 " clip-rule="nonzero"/></clipPath><clipPath id="206b333e05"><rect x="0" width="50" y="0" height="30"/></clipPath><clipPath id="cef1dcb2dd"><path d="M 94.785156 2.902344 L 101.316406 2.902344 L 101.316406 9.433594 L 94.785156 9.433594 Z M 94.785156 2.902344 " clip-rule="nonzero"/></clipPath><clipPath id="10378a44ff"><path d="M 44 0 L 102 0 L 102 29.03125 L 44 29.03125 Z M 44 0 " clip-rule="nonzero"/></clipPath><clipPath id="7df2c5e5a6"><path d="M 1 0 L 18 0 L 18 29.03125 L 1 29.03125 Z M 1 0 " clip-rule="nonzero"/></clipPath><clipPath id="51262ab1ee"><rect x="0" width="58" y="0" height="30"/></clipPath></defs><g clip-path="url(#bf2515c000)"><g transform="matrix(1, 0, 0, 1, 3, 0.000000000000005692)"><g clip-path="url(#206b333e05)"><g clip-path="url(#6b2f9c090a)"><g fill="#d8a527" fill-opacity="1"><g transform="translate(0.824102, 23.617902)"><g><path d="M 17.171875 -21.109375 C 17.410156 -20.921875 17.582031 -20.695312 17.6875 -20.4375 C 17.800781 -20.1875 17.914062 -19.925781 18.03125 -19.65625 C 18.195312 -19.351562 18.175781 -19.015625 17.96875 -18.640625 C 17.757812 -18.265625 17.566406 -17.945312 17.390625 -17.6875 C 17.140625 -17.300781 16.863281 -16.925781 16.5625 -16.5625 C 16.257812 -16.195312 15.945312 -15.84375 15.625 -15.5 C 15.375 -15.257812 15.117188 -15.003906 14.859375 -14.734375 C 14.597656 -14.460938 14.304688 -14.234375 13.984375 -14.046875 C 13.796875 -13.929688 13.601562 -13.867188 13.40625 -13.859375 C 13.207031 -13.847656 13.078125 -13.894531 13.015625 -14 C 12.960938 -14.101562 13.050781 -14.269531 13.28125 -14.5 C 13.332031 -14.539062 13.410156 -14.664062 13.515625 -14.875 C 13.617188 -15.082031 13.742188 -15.320312 13.890625 -15.59375 C 14.035156 -15.863281 14.175781 -16.097656 14.3125 -16.296875 C 14.457031 -16.492188 14.578125 -16.59375 14.671875 -16.59375 C 14.648438 -16.570312 14.59375 -16.46875 14.5 -16.28125 C 14.40625 -16.09375 14.320312 -15.929688 14.25 -15.796875 C 14.4375 -16.054688 14.675781 -16.421875 14.96875 -16.890625 C 15.269531 -17.359375 15.535156 -17.847656 15.765625 -18.359375 C 15.992188 -18.878906 16.101562 -19.351562 16.09375 -19.78125 C 16.082031 -20.207031 15.878906 -20.519531 15.484375 -20.71875 C 15.148438 -20.863281 14.765625 -20.890625 14.328125 -20.796875 C 13.890625 -20.703125 13.507812 -20.597656 13.1875 -20.484375 C 12.46875 -20.234375 11.769531 -19.851562 11.09375 -19.34375 C 12.007812 -20.03125 13.023438 -20.46875 14.140625 -20.65625 C 14.378906 -20.695312 14.644531 -20.722656 14.9375 -20.734375 C 15.238281 -20.753906 15.484375 -20.679688 15.671875 -20.515625 C 15.890625 -20.304688 15.972656 -20.085938 15.921875 -19.859375 C 15.867188 -19.628906 15.828125 -19.410156 15.796875 -19.203125 C 15.796875 -19.441406 15.800781 -19.664062 15.8125 -19.875 C 15.820312 -20.09375 15.769531 -20.273438 15.65625 -20.421875 C 15.550781 -20.578125 15.320312 -20.664062 14.96875 -20.6875 C 14.519531 -20.707031 14.070312 -20.648438 13.625 -20.515625 C 13.175781 -20.378906 12.765625 -20.21875 12.390625 -20.03125 C 11.722656 -19.707031 11.097656 -19.269531 10.515625 -18.71875 C 9.929688 -18.175781 9.46875 -17.570312 9.125 -16.90625 C 8.738281 -16.164062 8.566406 -15.40625 8.609375 -14.625 C 8.648438 -13.851562 8.804688 -13.09375 9.078125 -12.34375 C 9.359375 -11.59375 9.679688 -10.847656 10.046875 -10.109375 C 10.421875 -9.378906 10.753906 -8.679688 11.046875 -8.015625 C 10.753906 -8.566406 10.453125 -9.109375 10.140625 -9.640625 C 9.828125 -10.171875 9.535156 -10.707031 9.265625 -11.25 C 9.472656 -10.800781 9.632812 -10.367188 9.75 -9.953125 C 9.863281 -9.535156 10.046875 -9.109375 10.296875 -8.671875 C 10.617188 -8.140625 10.9375 -7.617188 11.25 -7.109375 C 11.570312 -6.597656 11.828125 -6.039062 12.015625 -5.4375 C 12.398438 -4.15625 12.410156 -2.984375 12.046875 -1.921875 C 11.679688 -0.867188 11.003906 0.0820312 10.015625 0.9375 L 10.578125 0.546875 C 10.578125 0.753906 10.445312 0.972656 10.1875 1.203125 C 9.9375 1.429688 9.617188 1.648438 9.234375 1.859375 C 8.859375 2.066406 8.5 2.242188 8.15625 2.390625 C 7.8125 2.546875 7.5625 2.65625 7.40625 2.71875 C 6.550781 3.0625 5.601562 3.242188 4.5625 3.265625 C 3.519531 3.296875 2.570312 3.101562 1.71875 2.6875 C 1.101562 2.363281 0.660156 1.941406 0.390625 1.421875 C 0.128906 0.910156 0 0.359375 0 -0.234375 C 0 -0.835938 0.09375 -1.441406 0.28125 -2.046875 C 0.476562 -2.660156 0.726562 -3.207031 1.03125 -3.6875 C 1.101562 -3.800781 1.269531 -4.023438 1.53125 -4.359375 C 1.789062 -4.691406 2.085938 -5.019531 2.421875 -5.34375 C 2.753906 -5.675781 3.070312 -5.910156 3.375 -6.046875 C 3.675781 -6.191406 3.90625 -6.125 4.0625 -5.84375 C 4.15625 -5.6875 4.140625 -5.46875 4.015625 -5.1875 C 3.890625 -4.914062 3.738281 -4.632812 3.5625 -4.34375 C 3.394531 -4.0625 3.285156 -3.84375 3.234375 -3.6875 C 3.117188 -3.4375 3.019531 -3.1875 2.9375 -2.9375 C 2.863281 -2.695312 2.800781 -2.441406 2.75 -2.171875 C 2.65625 -1.710938 2.585938 -1.222656 2.546875 -0.703125 C 2.503906 -0.191406 2.582031 0.28125 2.78125 0.71875 C 3.007812 1.25 3.390625 1.546875 3.921875 1.609375 C 4.453125 1.679688 4.96875 1.648438 5.46875 1.515625 C 6.15625 1.304688 6.789062 0.960938 7.375 0.484375 C 7.96875 0.00390625 8.445312 -0.535156 8.8125 -1.140625 C 9 -1.460938 9.15625 -1.800781 9.28125 -2.15625 C 9.40625 -2.507812 9.476562 -2.867188 9.5 -3.234375 C 9.5 -3.503906 9.46875 -3.78125 9.40625 -4.0625 C 9.394531 -4.132812 9.359375 -4.226562 9.296875 -4.34375 C 9.242188 -4.457031 9.222656 -4.5625 9.234375 -4.65625 C 9.234375 -4.601562 9.257812 -4.53125 9.3125 -4.4375 C 9.363281 -4.351562 9.394531 -4.273438 9.40625 -4.203125 C 9.394531 -4.296875 9.375 -4.390625 9.34375 -4.484375 C 9.3125 -4.585938 9.285156 -4.695312 9.265625 -4.8125 C 9.265625 -4.789062 9.242188 -4.816406 9.203125 -4.890625 C 9.171875 -4.960938 9.144531 -5 9.125 -5 C 9.03125 -5.226562 8.953125 -5.441406 8.890625 -5.640625 L 8.375 -6.921875 C 8.09375 -7.671875 7.789062 -8.410156 7.46875 -9.140625 C 7.144531 -9.867188 6.820312 -10.609375 6.5 -11.359375 C 6.269531 -11.910156 6.082031 -12.476562 5.9375 -13.0625 C 5.789062 -13.644531 5.703125 -14.226562 5.671875 -14.8125 C 5.671875 -14.914062 5.660156 -15.128906 5.640625 -15.453125 C 5.617188 -15.773438 5.625 -16.082031 5.65625 -16.375 C 5.695312 -16.675781 5.796875 -16.828125 5.953125 -16.828125 C 5.929688 -16.828125 5.90625 -16.75 5.875 -16.59375 C 5.851562 -16.4375 5.847656 -16.359375 5.859375 -16.359375 C 5.972656 -16.898438 6.175781 -17.4375 6.46875 -17.96875 L 6.265625 -17.6875 C 6.316406 -18.03125 6.460938 -18.363281 6.703125 -18.6875 C 6.941406 -19.007812 7.207031 -19.316406 7.5 -19.609375 C 7.800781 -19.910156 8.066406 -20.164062 8.296875 -20.375 C 9.328125 -21.320312 10.519531 -21.96875 11.875 -22.3125 C 12.5625 -22.488281 13.21875 -22.523438 13.84375 -22.421875 C 14.476562 -22.328125 15.117188 -22.148438 15.765625 -21.890625 C 16.035156 -21.796875 16.285156 -21.6875 16.515625 -21.5625 C 16.753906 -21.4375 16.972656 -21.285156 17.171875 -21.109375 Z M 1.171875 2.0625 C 0.804688 1.582031 0.597656 0.96875 0.546875 0.21875 C 0.503906 -0.519531 0.59375 -1.285156 0.8125 -2.078125 C 1.03125 -2.867188 1.332031 -3.539062 1.71875 -4.09375 C 1.28125 -3.476562 0.925781 -2.8125 0.65625 -2.09375 C 0.382812 -1.382812 0.273438 -0.675781 0.328125 0.03125 C 0.390625 0.75 0.671875 1.425781 1.171875 2.0625 Z M 8.546875 -14.59375 L 8.546875 -14.1875 C 8.546875 -14.25 8.550781 -14.3125 8.5625 -14.375 C 8.570312 -14.4375 8.566406 -14.507812 8.546875 -14.59375 Z M 8.546875 -14.59375 "/></g></g></g></g><g fill="#d8a527" fill-opacity="1"><g transform="translate(15.093095, 23.617902)"><g><path d="M 13.15625 -7.125 C 13.363281 -6.851562 13.351562 -6.628906 13.125 -6.453125 C 12.894531 -6.285156 12.578125 -6.15625 12.171875 -6.0625 C 11.765625 -5.96875 11.375 -5.898438 11 -5.859375 C 10.625 -5.828125 10.398438 -5.800781 10.328125 -5.78125 C 10.304688 -5.78125 10.226562 -5.757812 10.09375 -5.71875 C 9.96875 -5.6875 9.910156 -5.675781 9.921875 -5.6875 C 9.796875 -5.632812 9.71875 -5.597656 9.6875 -5.578125 C 9.65625 -5.554688 9.59375 -5.476562 9.5 -5.34375 C 9.382812 -5.175781 9.273438 -5 9.171875 -4.8125 C 9.066406 -4.632812 8.96875 -4.460938 8.875 -4.296875 C 8.832031 -4.253906 8.710938 -4.097656 8.515625 -3.828125 C 8.328125 -3.566406 8.132812 -3.316406 7.9375 -3.078125 C 7.738281 -2.835938 7.601562 -2.726562 7.53125 -2.75 C 7.53125 -2.75 7.566406 -2.796875 7.640625 -2.890625 C 7.710938 -2.984375 7.738281 -3.039062 7.71875 -3.0625 L 6.890625 -2.09375 C 6.984375 -2.1875 7.03125 -2.210938 7.03125 -2.171875 C 6.957031 -1.921875 6.734375 -1.664062 6.359375 -1.40625 C 5.992188 -1.15625 5.707031 -0.953125 5.5 -0.796875 C 5.269531 -0.628906 5.015625 -0.472656 4.734375 -0.328125 C 4.453125 -0.179688 4.160156 -0.09375 3.859375 -0.0625 C 3.265625 0 2.679688 -0.101562 2.109375 -0.375 C 1.554688 -0.65625 1.085938 -1.066406 0.703125 -1.609375 C 0.328125 -2.160156 0.0976562 -2.757812 0.015625 -3.40625 C -0.0664062 -4.050781 0.0390625 -4.660156 0.34375 -5.234375 C 0.59375 -5.691406 0.820312 -6.164062 1.03125 -6.65625 C 1.238281 -7.15625 1.515625 -7.632812 1.859375 -8.09375 C 2.066406 -8.34375 2.28125 -8.582031 2.5 -8.8125 C 2.71875 -9.039062 2.960938 -9.238281 3.234375 -9.40625 C 3.460938 -9.582031 3.71875 -9.726562 4 -9.84375 C 4.09375 -9.894531 4.222656 -9.9375 4.390625 -9.96875 C 4.566406 -10 4.695312 -10.039062 4.78125 -10.09375 C 4.875 -10.15625 4.957031 -10.320312 5.03125 -10.59375 C 5.113281 -10.875 5.179688 -11.070312 5.234375 -11.1875 C 5.347656 -11.394531 5.484375 -11.613281 5.640625 -11.84375 C 5.847656 -12.125 6.070312 -12.398438 6.3125 -12.671875 C 6.550781 -12.941406 6.820312 -13.160156 7.125 -13.328125 C 7.625 -13.597656 8.097656 -13.632812 8.546875 -13.4375 C 9.003906 -13.25 9.414062 -12.972656 9.78125 -12.609375 C 9.78125 -12.609375 9.859375 -12.550781 10.015625 -12.4375 C 10.179688 -12.320312 10.253906 -12.21875 10.234375 -12.125 L 10.125 -12.25 L 10.234375 -12.015625 L 10.265625 -11.984375 C 10.234375 -12.097656 10.269531 -12.09375 10.375 -11.96875 C 10.476562 -11.84375 10.53125 -11.78125 10.53125 -11.78125 C 10.664062 -11.59375 10.757812 -11.347656 10.8125 -11.046875 C 10.851562 -10.847656 10.875 -10.644531 10.875 -10.4375 C 10.875 -10.226562 10.851562 -10.019531 10.8125 -9.8125 C 10.757812 -9.28125 10.660156 -8.742188 10.515625 -8.203125 C 10.367188 -7.671875 10.222656 -7.148438 10.078125 -6.640625 C 10.515625 -6.710938 10.941406 -6.796875 11.359375 -6.890625 C 11.773438 -6.984375 12.191406 -7.070312 12.609375 -7.15625 C 12.710938 -7.1875 12.8125 -7.21875 12.90625 -7.25 C 13 -7.28125 13.082031 -7.25 13.15625 -7.15625 C 13.175781 -7.132812 13.179688 -7.125 13.171875 -7.125 C 13.160156 -7.125 13.15625 -7.125 13.15625 -7.125 Z M 3.265625 -1.34375 C 3.929688 -1.476562 4.546875 -1.78125 5.109375 -2.25 C 5.671875 -2.726562 6.160156 -3.28125 6.578125 -3.90625 C 6.992188 -4.539062 7.347656 -5.132812 7.640625 -5.6875 C 7.222656 -5.75 6.789062 -5.851562 6.34375 -6 C 5.90625 -6.15625 5.519531 -6.378906 5.1875 -6.671875 C 4.851562 -6.972656 4.628906 -7.363281 4.515625 -7.84375 C 4.285156 -7.59375 3.941406 -7 3.484375 -6.0625 L 3.65625 -6.328125 C 3.644531 -6.265625 3.550781 -6.046875 3.375 -5.671875 C 3.207031 -5.304688 3.015625 -4.863281 2.796875 -4.34375 C 2.585938 -3.832031 2.429688 -3.335938 2.328125 -2.859375 C 2.222656 -2.378906 2.226562 -1.988281 2.34375 -1.6875 C 2.457031 -1.382812 2.753906 -1.269531 3.234375 -1.34375 Z M 8.890625 -9.265625 C 8.953125 -9.515625 9.015625 -9.816406 9.078125 -10.171875 C 9.148438 -10.523438 9.191406 -10.878906 9.203125 -11.234375 C 9.222656 -11.585938 9.160156 -11.882812 9.015625 -12.125 C 8.816406 -12.4375 8.582031 -12.535156 8.3125 -12.421875 C 8.050781 -12.304688 7.796875 -12.113281 7.546875 -11.84375 C 7.304688 -11.570312 7.109375 -11.34375 6.953125 -11.15625 C 6.929688 -11.15625 6.921875 -11.148438 6.921875 -11.140625 C 6.921875 -11.128906 6.921875 -11.125 6.921875 -11.125 L 6.890625 -11.078125 L 6.890625 -11.09375 C 6.867188 -11.039062 6.859375 -11.015625 6.859375 -11.015625 C 6.785156 -10.921875 6.707031 -10.820312 6.625 -10.71875 C 6.550781 -10.613281 6.46875 -10.484375 6.375 -10.328125 C 6.394531 -10.347656 6.457031 -10.4375 6.5625 -10.59375 C 6.664062 -10.757812 6.726562 -10.820312 6.75 -10.78125 C 6.789062 -10.726562 6.765625 -10.609375 6.671875 -10.421875 C 6.585938 -10.242188 6.5 -10.0625 6.40625 -9.875 C 6.3125 -9.695312 6.242188 -9.582031 6.203125 -9.53125 C 6.128906 -9.300781 6.054688 -9.070312 5.984375 -8.84375 C 5.921875 -8.613281 5.875 -8.375 5.84375 -8.125 C 5.820312 -7.875 5.816406 -7.625 5.828125 -7.375 C 5.835938 -7.132812 5.9375 -6.925781 6.125 -6.75 C 6.238281 -6.65625 6.378906 -6.585938 6.546875 -6.546875 C 6.722656 -6.515625 6.882812 -6.488281 7.03125 -6.46875 C 7.132812 -6.445312 7.257812 -6.429688 7.40625 -6.421875 C 7.5625 -6.410156 7.675781 -6.414062 7.75 -6.4375 C 7.90625 -6.476562 7.984375 -6.5 7.984375 -6.5 C 7.984375 -6.5 8.019531 -6.5625 8.09375 -6.6875 C 8.300781 -7.050781 8.460938 -7.472656 8.578125 -7.953125 C 8.691406 -8.429688 8.796875 -8.867188 8.890625 -9.265625 Z M 6.921875 -11.125 C 6.921875 -11.125 6.925781 -11.125 6.9375 -11.125 C 6.945312 -11.125 6.953125 -11.132812 6.953125 -11.15625 Z M 6.921875 -11.125 "/></g></g></g><g clip-path="url(#2ee839e628)"><g fill="#d8a527" fill-opacity="1"><g transform="translate(26.273807, 23.617902)"><g><path d="M 11.4375 -7.296875 C 11.664062 -7.523438 11.828125 -7.59375 11.921875 -7.5 C 12.023438 -7.40625 12.082031 -7.242188 12.09375 -7.015625 C 12.101562 -6.796875 12.085938 -6.613281 12.046875 -6.46875 C 11.972656 -6.164062 11.847656 -5.863281 11.671875 -5.5625 C 11.503906 -5.269531 11.332031 -4.976562 11.15625 -4.6875 C 10.738281 -4 10.328125 -3.296875 9.921875 -2.578125 C 9.523438 -1.867188 9.085938 -1.171875 8.609375 -0.484375 C 8.097656 0.253906 7.5625 0.988281 7 1.71875 C 6.4375 2.457031 5.820312 3.15625 5.15625 3.8125 C 4.789062 4.144531 4.378906 4.441406 3.921875 4.703125 C 3.460938 4.960938 3 5.085938 2.53125 5.078125 C 2.0625 5.066406 1.597656 4.863281 1.140625 4.46875 C 0.742188 4.082031 0.460938 3.625 0.296875 3.09375 C 0.140625 2.570312 0.0507812 2.019531 0.03125 1.4375 C 0.0078125 0.863281 0.0078125 0.328125 0.03125 -0.171875 C 0.0820312 -0.972656 0.195312 -1.765625 0.375 -2.546875 C 0.5625 -3.328125 0.75 -4.097656 0.9375 -4.859375 C 0.957031 -4.898438 0.96875 -5.046875 0.96875 -5.296875 C 0.96875 -5.546875 1.007812 -5.71875 1.09375 -5.8125 C 1.070312 -5.789062 1.0625 -5.734375 1.0625 -5.640625 C 1.0625 -5.554688 1.050781 -5.46875 1.03125 -5.375 C 1.070312 -5.46875 1.101562 -5.566406 1.125 -5.671875 C 1.15625 -5.785156 1.191406 -5.890625 1.234375 -5.984375 L 1.140625 -5.984375 C 1.109375 -6.265625 1.160156 -6.597656 1.296875 -6.984375 C 1.441406 -7.378906 1.550781 -7.710938 1.625 -7.984375 C 1.726562 -8.304688 1.832031 -8.640625 1.9375 -8.984375 C 2.050781 -9.328125 2.164062 -9.660156 2.28125 -9.984375 C 2.5 -10.597656 2.722656 -11.207031 2.953125 -11.8125 C 3.179688 -12.425781 3.390625 -13.035156 3.578125 -13.640625 C 3.765625 -14.253906 3.988281 -14.851562 4.25 -15.4375 C 4.519531 -16.03125 4.800781 -16.613281 5.09375 -17.1875 C 5.363281 -17.75 5.648438 -18.296875 5.953125 -18.828125 C 5.992188 -18.878906 6.066406 -19.015625 6.171875 -19.234375 C 6.285156 -19.453125 6.410156 -19.664062 6.546875 -19.875 C 6.679688 -20.09375 6.769531 -20.191406 6.8125 -20.171875 L 6.578125 -19.6875 L 7.5 -21.25 L 7.46875 -21.234375 C 7.539062 -21.347656 7.617188 -21.492188 7.703125 -21.671875 C 7.796875 -21.847656 7.878906 -21.976562 7.953125 -22.0625 L 8.609375 -22.9375 C 8.816406 -23.1875 9.046875 -23.453125 9.296875 -23.734375 C 9.546875 -24.023438 9.832031 -24.21875 10.15625 -24.3125 C 10.570312 -24.445312 10.957031 -24.421875 11.3125 -24.234375 C 11.664062 -24.046875 11.957031 -23.769531 12.1875 -23.40625 C 12.414062 -23.039062 12.554688 -22.664062 12.609375 -22.28125 L 12.640625 -22.265625 L 12.640625 -22.109375 C 12.703125 -21.535156 12.644531 -20.9375 12.46875 -20.3125 C 12.300781 -19.6875 12.082031 -19.070312 11.8125 -18.46875 C 11.550781 -17.863281 11.285156 -17.316406 11.015625 -16.828125 C 10.785156 -16.367188 10.539062 -15.882812 10.28125 -15.375 C 10.03125 -14.875 9.722656 -14.429688 9.359375 -14.046875 C 9.109375 -13.773438 8.90625 -13.492188 8.75 -13.203125 C 8.601562 -12.910156 8.421875 -12.597656 8.203125 -12.265625 C 7.671875 -11.390625 7.109375 -10.519531 6.515625 -9.65625 C 5.929688 -8.800781 5.3125 -7.976562 4.65625 -7.1875 C 4.507812 -6.988281 4.382812 -6.804688 4.28125 -6.640625 C 4.175781 -6.484375 4.082031 -6.273438 4 -6.015625 C 3.925781 -5.742188 3.847656 -5.46875 3.765625 -5.1875 C 3.691406 -4.914062 3.617188 -4.632812 3.546875 -4.34375 C 3.472656 -4.0625 3.394531 -3.773438 3.3125 -3.484375 C 3.238281 -3.203125 3.164062 -2.914062 3.09375 -2.625 C 3.070312 -2.5 3.015625 -2.289062 2.921875 -2 C 2.828125 -1.71875 2.785156 -1.554688 2.796875 -1.515625 C 2.722656 -1.191406 2.664062 -0.835938 2.625 -0.453125 L 2.859375 -1.3125 C 2.929688 -1.195312 2.9375 -0.976562 2.875 -0.65625 C 2.8125 -0.332031 2.769531 -0.101562 2.75 0.03125 C 2.6875 0.445312 2.65625 0.894531 2.65625 1.375 C 2.65625 1.539062 2.664062 1.765625 2.6875 2.046875 C 2.707031 2.335938 2.769531 2.601562 2.875 2.84375 C 2.976562 3.082031 3.144531 3.222656 3.375 3.265625 C 3.695312 3.296875 4.019531 3.1875 4.34375 2.9375 C 4.664062 2.695312 4.960938 2.414062 5.234375 2.09375 C 5.503906 1.769531 5.710938 1.507812 5.859375 1.3125 C 6.453125 0.601562 7 -0.132812 7.5 -0.90625 C 8.007812 -1.675781 8.503906 -2.441406 8.984375 -3.203125 C 9.253906 -3.609375 9.503906 -4.007812 9.734375 -4.40625 C 9.972656 -4.800781 10.21875 -5.210938 10.46875 -5.640625 C 10.625 -5.898438 10.773438 -6.1875 10.921875 -6.5 C 11.078125 -6.820312 11.25 -7.085938 11.4375 -7.296875 Z M 7.875 -17.53125 C 7.332031 -16.257812 6.847656 -14.953125 6.421875 -13.609375 C 5.992188 -12.273438 5.570312 -10.984375 5.15625 -9.734375 C 6.21875 -11.421875 7.285156 -13.164062 8.359375 -14.96875 C 9.441406 -16.78125 10.304688 -18.640625 10.953125 -20.546875 C 10.703125 -19.859375 10.410156 -19.179688 10.078125 -18.515625 C 9.742188 -17.859375 9.414062 -17.21875 9.09375 -16.59375 C 8.90625 -16.226562 8.707031 -15.867188 8.5 -15.515625 C 8.300781 -15.160156 8.097656 -14.804688 7.890625 -14.453125 C 7.765625 -14.242188 7.597656 -13.988281 7.390625 -13.6875 C 7.191406 -13.394531 7.046875 -13.132812 6.953125 -12.90625 C 7.066406 -13.28125 7.265625 -13.664062 7.546875 -14.0625 C 7.835938 -14.46875 8.078125 -14.84375 8.265625 -15.1875 L 9.46875 -17.421875 C 9.8125 -18.109375 10.1875 -18.859375 10.59375 -19.671875 C 11.007812 -20.484375 11.226562 -21.289062 11.25 -22.09375 L 11.25 -22.109375 C 11.257812 -22.492188 11.203125 -22.695312 11.078125 -22.71875 C 10.960938 -22.75 10.8125 -22.6875 10.625 -22.53125 C 10.445312 -22.382812 10.28125 -22.210938 10.125 -22.015625 C 9.976562 -21.816406 9.875 -21.675781 9.8125 -21.59375 C 9.414062 -20.945312 9.0625 -20.28125 8.75 -19.59375 C 8.445312 -18.90625 8.15625 -18.21875 7.875 -17.53125 Z M 6.953125 -19.546875 C 6.796875 -19.234375 6.644531 -18.929688 6.5 -18.640625 C 6.363281 -18.359375 6.226562 -18.054688 6.09375 -17.734375 C 6.070312 -17.710938 6.0625 -17.675781 6.0625 -17.625 C 6.382812 -18.195312 6.71875 -18.765625 7.0625 -19.328125 C 7.40625 -19.890625 7.734375 -20.46875 8.046875 -21.0625 C 7.910156 -20.8125 7.734375 -20.5625 7.515625 -20.3125 C 7.296875 -20.0625 7.109375 -19.804688 6.953125 -19.546875 Z M 1.546875 -4.75 C 1.566406 -4.769531 1.578125 -4.789062 1.578125 -4.8125 C 1.578125 -4.84375 1.554688 -4.847656 1.515625 -4.828125 C 1.460938 -4.828125 1.398438 -4.695312 1.328125 -4.4375 C 1.265625 -4.1875 1.210938 -3.898438 1.171875 -3.578125 L 1.171875 -3.609375 C 1.078125 -3.109375 1 -2.59375 0.9375 -2.0625 C 0.882812 -1.539062 0.835938 -1.023438 0.796875 -0.515625 L 0.890625 -1.4375 L 0.890625 -1.34375 C 0.890625 -1.4375 0.894531 -1.53125 0.90625 -1.625 C 0.925781 -1.726562 0.945312 -1.828125 0.96875 -1.921875 C 1.0625 -2.359375 1.132812 -2.820312 1.1875 -3.3125 C 1.238281 -3.8125 1.347656 -4.257812 1.515625 -4.65625 C 1.515625 -4.65625 1.515625 -4.664062 1.515625 -4.6875 C 1.515625 -4.707031 1.523438 -4.726562 1.546875 -4.75 Z M 1.546875 -4.75 "/></g></g></g></g><g fill="#d8a527" fill-opacity="1"><g transform="translate(36.396504, 23.617902)"><g><path d="M 10.953125 -7.0625 C 11.015625 -6.945312 11.03125 -6.851562 11 -6.78125 C 10.96875 -6.707031 10.914062 -6.617188 10.84375 -6.515625 L 9.953125 -5.34375 L 8.40625 -3.34375 C 8.21875 -3.09375 8.007812 -2.84375 7.78125 -2.59375 C 7.550781 -2.351562 7.332031 -2.097656 7.125 -1.828125 C 6.914062 -1.546875 6.707031 -1.253906 6.5 -0.953125 C 6.300781 -0.660156 6.082031 -0.378906 5.84375 -0.109375 C 5.59375 0.148438 5.3125 0.414062 5 0.6875 C 4.695312 0.957031 4.375 1.1875 4.03125 1.375 C 3.570312 1.625 3.085938 1.671875 2.578125 1.515625 C 2.210938 1.421875 1.867188 1.265625 1.546875 1.046875 C 1.222656 0.828125 0.9375 0.570312 0.6875 0.28125 C 0.613281 0.1875 0.546875 0.101562 0.484375 0.03125 C 0.429688 -0.0390625 0.394531 -0.132812 0.375 -0.25 C 0.351562 -0.351562 0.335938 -0.453125 0.328125 -0.546875 C 0.316406 -0.640625 0.3125 -0.734375 0.3125 -0.828125 C 0.289062 -1.003906 0.300781 -1.160156 0.34375 -1.296875 C 0.394531 -1.441406 0.429688 -1.601562 0.453125 -1.78125 C 0.492188 -1.96875 0.546875 -2.144531 0.609375 -2.3125 C 0.679688 -2.488281 0.726562 -2.671875 0.75 -2.859375 C 0.78125 -3.066406 0.816406 -3.257812 0.859375 -3.4375 C 0.910156 -3.625 0.945312 -3.8125 0.96875 -4 C 0.988281 -4.175781 0.992188 -4.351562 0.984375 -4.53125 C 0.972656 -4.71875 0.988281 -4.894531 1.03125 -5.0625 C 1.070312 -5.175781 1.125 -5.289062 1.1875 -5.40625 C 1.25 -5.519531 1.300781 -5.644531 1.34375 -5.78125 C 1.300781 -5.707031 1.25 -5.625 1.1875 -5.53125 C 1.132812 -5.445312 1.101562 -5.367188 1.09375 -5.296875 C 1.050781 -5.179688 1.007812 -5.066406 0.96875 -4.953125 C 0.9375 -4.835938 0.898438 -4.734375 0.859375 -4.640625 C 0.816406 -4.523438 0.78125 -4.410156 0.75 -4.296875 C 0.726562 -4.191406 0.695312 -4.085938 0.65625 -3.984375 C 0.601562 -3.847656 0.550781 -3.722656 0.5 -3.609375 C 0.445312 -3.492188 0.414062 -3.359375 0.40625 -3.203125 C 0.382812 -3.066406 0.378906 -2.9375 0.390625 -2.8125 C 0.398438 -2.6875 0.394531 -2.5625 0.375 -2.4375 C 0.351562 -2.300781 0.328125 -2.179688 0.296875 -2.078125 C 0.265625 -1.972656 0.25 -1.851562 0.25 -1.71875 C 0.25 -1.675781 0.257812 -1.617188 0.28125 -1.546875 C 0.300781 -1.484375 0.3125 -1.4375 0.3125 -1.40625 C 0.3125 -1.34375 0.300781 -1.273438 0.28125 -1.203125 C 0.257812 -1.140625 0.25 -1.070312 0.25 -1 C 0.25 -0.863281 0.257812 -0.734375 0.28125 -0.609375 C 0.300781 -0.484375 0.320312 -0.347656 0.34375 -0.203125 C 0.113281 -0.597656 0 -1 0 -1.40625 C 0 -1.820312 0.0351562 -2.238281 0.109375 -2.65625 C 0.191406 -3.09375 0.265625 -3.515625 0.328125 -3.921875 C 0.390625 -4.335938 0.472656 -4.753906 0.578125 -5.171875 C 0.765625 -6.015625 1.046875 -6.84375 1.421875 -7.65625 C 1.804688 -8.46875 2.265625 -9.207031 2.796875 -9.875 C 3.242188 -10.457031 3.765625 -10.9375 4.359375 -11.3125 C 4.960938 -11.6875 5.644531 -11.796875 6.40625 -11.640625 C 6.695312 -11.585938 6.984375 -11.492188 7.265625 -11.359375 C 7.554688 -11.222656 7.796875 -11.03125 7.984375 -10.78125 C 8.191406 -10.519531 8.296875 -10.222656 8.296875 -9.890625 C 8.296875 -9.566406 8.25 -9.242188 8.15625 -8.921875 C 7.96875 -8.367188 7.660156 -7.867188 7.234375 -7.421875 C 6.816406 -6.972656 6.390625 -6.554688 5.953125 -6.171875 C 5.765625 -6.023438 5.566406 -5.875 5.359375 -5.71875 C 5.160156 -5.570312 4.957031 -5.429688 4.75 -5.296875 C 4.613281 -5.210938 4.460938 -5.140625 4.296875 -5.078125 C 4.140625 -5.015625 3.984375 -4.953125 3.828125 -4.890625 L 3.34375 -4.71875 C 3.25 -4.695312 3.179688 -4.679688 3.140625 -4.671875 C 3.109375 -4.660156 3.070312 -4.609375 3.03125 -4.515625 C 2.957031 -4.378906 2.925781 -4.238281 2.9375 -4.09375 C 2.957031 -3.957031 2.953125 -3.8125 2.921875 -3.65625 C 2.898438 -3.46875 2.863281 -3.285156 2.8125 -3.109375 C 2.769531 -2.941406 2.726562 -2.765625 2.6875 -2.578125 C 2.613281 -2.234375 2.539062 -1.851562 2.46875 -1.4375 C 2.40625 -1.03125 2.410156 -0.644531 2.484375 -0.28125 C 2.566406 0.0703125 2.753906 0.234375 3.046875 0.203125 C 3.335938 0.179688 3.660156 0.0507812 4.015625 -0.1875 C 4.367188 -0.425781 4.695312 -0.675781 5 -0.9375 C 5.3125 -1.207031 5.523438 -1.390625 5.640625 -1.484375 C 5.785156 -1.617188 5.921875 -1.753906 6.046875 -1.890625 C 6.171875 -2.023438 6.300781 -2.15625 6.4375 -2.28125 C 6.507812 -2.382812 6.582031 -2.472656 6.65625 -2.546875 C 6.738281 -2.617188 6.804688 -2.695312 6.859375 -2.78125 C 6.859375 -2.78125 6.867188 -2.804688 6.890625 -2.859375 C 6.910156 -2.921875 6.921875 -2.957031 6.921875 -2.96875 C 7.097656 -3.238281 7.296875 -3.503906 7.515625 -3.765625 C 7.734375 -4.035156 7.945312 -4.296875 8.15625 -4.546875 C 8.414062 -4.847656 8.660156 -5.15625 8.890625 -5.46875 C 9.117188 -5.789062 9.359375 -6.113281 9.609375 -6.4375 C 9.703125 -6.570312 9.820312 -6.738281 9.96875 -6.9375 C 10.113281 -7.132812 10.269531 -7.273438 10.4375 -7.359375 C 10.613281 -7.453125 10.773438 -7.363281 10.921875 -7.09375 L 10.921875 -7.0625 C 10.941406 -7.039062 10.953125 -7.039062 10.953125 -7.0625 Z M 3.859375 -6.75 C 3.785156 -6.613281 3.722656 -6.460938 3.671875 -6.296875 C 3.628906 -6.140625 3.566406 -5.988281 3.484375 -5.84375 C 4.421875 -6.332031 5.222656 -6.96875 5.890625 -7.75 L 6.375 -8.375 C 6.414062 -8.457031 6.46875 -8.523438 6.53125 -8.578125 C 6.601562 -8.640625 6.648438 -8.707031 6.671875 -8.78125 C 6.679688 -8.851562 6.675781 -8.921875 6.65625 -8.984375 C 6.644531 -9.054688 6.648438 -9.132812 6.671875 -9.21875 L 6.78125 -9.8125 C 6.800781 -9.96875 6.769531 -10.171875 6.6875 -10.421875 C 6.613281 -10.679688 6.472656 -10.789062 6.265625 -10.75 C 6.171875 -10.738281 6.078125 -10.675781 5.984375 -10.5625 C 5.890625 -10.457031 5.8125 -10.367188 5.75 -10.296875 L 5.234375 -9.609375 C 4.929688 -9.171875 4.679688 -8.710938 4.484375 -8.234375 C 4.296875 -7.765625 4.097656 -7.300781 3.890625 -6.84375 C 3.890625 -6.84375 3.890625 -6.835938 3.890625 -6.828125 C 3.890625 -6.816406 3.878906 -6.789062 3.859375 -6.75 Z M 3.859375 -6.75 "/></g></g></g><g fill="#d8a527" fill-opacity="1"><g transform="translate(45.291062, 23.617902)"><g/></g></g></g></g></g><path fill="#000000" d="M 98.101562 6.171875 C 98.472656 6.171875 98.71875 5.96875 98.71875 5.59375 C 98.71875 5.21875 98.472656 5.039062 98.089844 5.039062 L 97.496094 5.039062 L 97.496094 6.171875 Z M 96.960938 4.550781 L 98.121094 4.550781 C 98.816406 4.550781 99.261719 4.921875 99.261719 5.582031 C 99.261719 6.082031 98.984375 6.398438 98.589844 6.535156 L 99.347656 7.789062 L 98.730469 7.789062 L 98.042969 6.648438 C 98.039062 6.640625 97.875 6.648438 97.867188 6.648438 L 97.496094 6.648438 L 97.496094 7.789062 L 96.960938 7.789062 L 96.960938 4.550781 " fill-opacity="1" fill-rule="nonzero"/><g clip-path="url(#cef1dcb2dd)"><path fill="#000000" d="M 98.050781 3.464844 C 97.6875 3.464844 97.332031 3.535156 97 3.675781 C 96.675781 3.8125 96.386719 4.007812 96.136719 4.257812 C 95.890625 4.503906 95.695312 4.792969 95.558594 5.117188 C 95.417969 5.449219 95.347656 5.804688 95.347656 6.167969 C 95.347656 6.535156 95.417969 6.886719 95.558594 7.222656 C 95.695312 7.542969 95.890625 7.832031 96.136719 8.082031 C 96.386719 8.332031 96.675781 8.523438 97 8.660156 C 97.332031 8.800781 97.6875 8.875 98.050781 8.875 C 98.417969 8.875 98.769531 8.800781 99.105469 8.660156 C 99.425781 8.523438 99.714844 8.332031 99.964844 8.082031 C 100.210938 7.832031 100.40625 7.542969 100.542969 7.222656 C 100.683594 6.886719 100.757812 6.535156 100.757812 6.167969 C 100.757812 5.804688 100.683594 5.449219 100.542969 5.117188 C 100.40625 4.792969 100.210938 4.503906 99.964844 4.257812 C 99.714844 4.007812 99.425781 3.8125 99.105469 3.675781 C 98.769531 3.535156 98.417969 3.464844 98.050781 3.464844 Z M 98.050781 9.433594 C 97.609375 9.433594 97.183594 9.347656 96.78125 9.179688 C 96.390625 9.011719 96.042969 8.777344 95.742188 8.476562 C 95.441406 8.179688 95.207031 7.828125 95.042969 7.441406 C 94.871094 7.039062 94.785156 6.609375 94.785156 6.167969 C 94.785156 5.726562 94.871094 5.300781 95.042969 4.898438 C 95.207031 4.507812 95.441406 4.160156 95.742188 3.859375 C 96.042969 3.558594 96.390625 3.324219 96.78125 3.160156 C 97.183594 2.988281 97.609375 2.902344 98.050781 2.902344 C 98.492188 2.902344 98.917969 2.988281 99.324219 3.160156 C 99.710938 3.324219 100.0625 3.558594 100.359375 3.859375 C 100.660156 4.160156 100.894531 4.507812 101.058594 4.898438 C 101.230469 5.300781 101.316406 5.726562 101.316406 6.167969 C 101.316406 6.609375 101.230469 7.039062 101.058594 7.441406 C 100.894531 7.828125 100.660156 8.179688 100.359375 8.476562 C 100.0625 8.777344 99.710938 9.011719 99.324219 9.179688 C 98.917969 9.347656 98.492188 9.433594 98.050781 9.433594 " fill-opacity="1" fill-rule="nonzero"/></g><g clip-path="url(#10378a44ff)"><g transform="matrix(1, 0, 0, 1, 44, 0.000000000000005692)"><g clip-path="url(#51262ab1ee)"><g clip-path="url(#7df2c5e5a6)"><g fill="#000000" fill-opacity="1"><g transform="translate(4.485597, 24.326666)"><g><path d="M 12.734375 -16.3125 L 12.734375 -16.28125 C 12.753906 -16.070312 12.660156 -15.878906 12.453125 -15.703125 C 12.242188 -15.535156 12.046875 -15.429688 11.859375 -15.390625 C 11.648438 -15.328125 11.429688 -15.332031 11.203125 -15.40625 C 10.984375 -15.476562 10.78125 -15.492188 10.59375 -15.453125 C 10.488281 -15.429688 10.429688 -15.398438 10.421875 -15.359375 C 10.410156 -15.316406 10.351562 -15.273438 10.25 -15.234375 C 10.101562 -15.191406 9.953125 -15.171875 9.796875 -15.171875 C 9.640625 -15.171875 9.488281 -15.171875 9.34375 -15.171875 C 9.132812 -15.171875 8.851562 -15.195312 8.5 -15.25 C 8.144531 -15.300781 7.882812 -15.273438 7.71875 -15.171875 C 7.65625 -15.148438 7.59375 -15.085938 7.53125 -14.984375 L 7.625 -15.171875 C 7.539062 -15.148438 7.425781 -14.976562 7.28125 -14.65625 C 7.132812 -14.332031 7.007812 -14.023438 6.90625 -13.734375 L 7.25 -14.421875 L 6.8125 -13.234375 C 6.65625 -12.898438 6.503906 -12.566406 6.359375 -12.234375 C 6.210938 -11.898438 6.066406 -11.566406 5.921875 -11.234375 C 5.648438 -10.578125 5.382812 -9.921875 5.125 -9.265625 C 4.863281 -8.609375 4.609375 -7.945312 4.359375 -7.28125 C 3.941406 -6.0625 3.535156 -4.8125 3.140625 -3.53125 C 2.742188 -2.257812 2.394531 -0.988281 2.09375 0.28125 C 2.070312 0.425781 2.015625 0.679688 1.921875 1.046875 C 1.828125 1.410156 1.78125 1.769531 1.78125 2.125 C 1.78125 2.488281 1.875 2.710938 2.0625 2.796875 C 2.101562 2.816406 2.238281 2.769531 2.46875 2.65625 C 2.707031 2.539062 2.816406 2.492188 2.796875 2.515625 C 2.878906 2.429688 2.960938 2.34375 3.046875 2.25 C 3.128906 2.164062 3.210938 2.082031 3.296875 2 C 3.234375 2.039062 3.140625 2.109375 3.015625 2.203125 C 2.890625 2.304688 2.828125 2.347656 2.828125 2.328125 C 2.828125 2.253906 2.890625 2.148438 3.015625 2.015625 C 3.140625 1.878906 3.273438 1.742188 3.421875 1.609375 C 3.566406 1.472656 3.660156 1.382812 3.703125 1.34375 C 3.867188 1.175781 4.019531 1.007812 4.15625 0.84375 C 4.289062 0.675781 4.429688 0.519531 4.578125 0.375 L 6.390625 -1.84375 C 6.960938 -2.5625 7.519531 -3.273438 8.0625 -3.984375 C 8.601562 -4.691406 9.15625 -5.398438 9.71875 -6.109375 C 9.800781 -6.210938 9.910156 -6.378906 10.046875 -6.609375 C 10.179688 -6.847656 10.332031 -7.070312 10.5 -7.28125 C 10.664062 -7.488281 10.8125 -7.601562 10.9375 -7.625 C 11.195312 -7.664062 11.359375 -7.59375 11.421875 -7.40625 C 11.484375 -7.21875 11.472656 -7.019531 11.390625 -6.8125 C 11.234375 -6.382812 10.988281 -5.988281 10.65625 -5.625 C 10.320312 -5.257812 10.039062 -4.890625 9.8125 -4.515625 C 9.414062 -3.867188 8.992188 -3.226562 8.546875 -2.59375 C 8.097656 -1.96875 7.644531 -1.34375 7.1875 -0.71875 C 6.675781 -0.0507812 6.164062 0.613281 5.65625 1.28125 C 5.144531 1.957031 4.617188 2.617188 4.078125 3.265625 C 3.828125 3.578125 3.539062 3.921875 3.21875 4.296875 C 2.894531 4.671875 2.53125 4.953125 2.125 5.140625 C 1.832031 5.285156 1.507812 5.296875 1.15625 5.171875 C 0.800781 5.046875 0.5 4.890625 0.25 4.703125 C -0.0195312 4.515625 -0.238281 4.285156 -0.40625 4.015625 C -0.570312 3.742188 -0.6875 3.453125 -0.75 3.140625 C -0.769531 3.035156 -0.800781 2.796875 -0.84375 2.421875 C -0.882812 2.054688 -0.863281 1.820312 -0.78125 1.71875 L -0.78125 2.1875 L -0.71875 1.5625 C -0.738281 1.625 -0.753906 1.585938 -0.765625 1.453125 C -0.773438 1.316406 -0.78125 1.238281 -0.78125 1.21875 C -0.78125 1.09375 -0.765625 0.960938 -0.734375 0.828125 C -0.703125 0.691406 -0.675781 0.5625 -0.65625 0.4375 C -0.613281 0.1875 -0.566406 -0.0546875 -0.515625 -0.296875 C -0.460938 -0.535156 -0.40625 -0.78125 -0.34375 -1.03125 C -0.238281 -1.507812 -0.125 -1.992188 0 -2.484375 C 0.125 -2.984375 0.226562 -3.484375 0.3125 -3.984375 C 0.394531 -4.484375 0.515625 -4.972656 0.671875 -5.453125 C 0.828125 -5.929688 0.976562 -6.40625 1.125 -6.875 C 1.144531 -6.9375 1.210938 -7.132812 1.328125 -7.46875 C 1.441406 -7.800781 1.566406 -8.128906 1.703125 -8.453125 C 1.835938 -8.773438 1.925781 -8.9375 1.96875 -8.9375 C 1.988281 -8.9375 1.984375 -8.875 1.953125 -8.75 C 1.921875 -8.625 1.90625 -8.550781 1.90625 -8.53125 C 1.96875 -8.757812 2.039062 -8.992188 2.125 -9.234375 C 2.21875 -9.472656 2.304688 -9.707031 2.390625 -9.9375 C 2.367188 -9.851562 2.332031 -9.785156 2.28125 -9.734375 C 2.238281 -9.679688 2.21875 -9.664062 2.21875 -9.6875 C 2.21875 -9.875 2.289062 -10.109375 2.4375 -10.390625 C 2.59375 -10.671875 2.703125 -10.894531 2.765625 -11.0625 L 3.140625 -12.171875 C 3.304688 -12.671875 3.484375 -13.171875 3.671875 -13.671875 C 3.859375 -14.171875 4.054688 -14.648438 4.265625 -15.109375 C 3.828125 -15.085938 3.398438 -15.078125 2.984375 -15.078125 C 2.566406 -15.078125 2.144531 -15.035156 1.71875 -14.953125 C 1.132812 -14.847656 0.492188 -14.8125 -0.203125 -14.84375 C -0.898438 -14.875 -1.550781 -14.929688 -2.15625 -15.015625 C -2.25 -15.035156 -2.414062 -15.066406 -2.65625 -15.109375 C -2.894531 -15.148438 -2.972656 -15.253906 -2.890625 -15.421875 C -2.847656 -15.460938 -2.703125 -15.515625 -2.453125 -15.578125 C -2.210938 -15.648438 -2.0625 -15.695312 -2 -15.71875 C -1.707031 -15.820312 -1.40625 -15.882812 -1.09375 -15.90625 C -0.78125 -15.925781 -0.46875 -15.945312 -0.15625 -15.96875 C 0.445312 -16.03125 1.050781 -16.0625 1.65625 -16.0625 C 2.269531 -16.0625 2.878906 -16.101562 3.484375 -16.1875 C 3.648438 -16.207031 3.84375 -16.207031 4.0625 -16.1875 C 4.28125 -16.164062 4.460938 -16.1875 4.609375 -16.25 C 4.753906 -16.289062 4.84375 -16.363281 4.875 -16.46875 C 4.90625 -16.570312 4.953125 -16.695312 5.015625 -16.84375 C 5.117188 -17.132812 5.234375 -17.414062 5.359375 -17.6875 C 5.484375 -17.957031 5.609375 -18.226562 5.734375 -18.5 C 5.878906 -18.789062 6.019531 -19.085938 6.15625 -19.390625 C 6.289062 -19.691406 6.453125 -19.984375 6.640625 -20.265625 C 6.773438 -20.429688 6.90625 -20.5625 7.03125 -20.65625 C 7.15625 -20.75 7.257812 -20.890625 7.34375 -21.078125 C 7.53125 -21.492188 7.738281 -21.910156 7.96875 -22.328125 C 8.195312 -22.742188 8.457031 -23.128906 8.75 -23.484375 C 9.0625 -23.898438 9.46875 -24.15625 9.96875 -24.25 C 10.46875 -24.34375 10.960938 -24.335938 11.453125 -24.234375 C 11.679688 -24.191406 11.914062 -24.09375 12.15625 -23.9375 C 12.394531 -23.78125 12.460938 -23.546875 12.359375 -23.234375 C 12.316406 -23.109375 12.234375 -23.003906 12.109375 -22.921875 C 11.984375 -22.835938 11.867188 -22.742188 11.765625 -22.640625 C 11.765625 -22.617188 11.8125 -22.65625 11.90625 -22.75 C 12 -22.84375 12.046875 -22.859375 12.046875 -22.796875 C 12.046875 -22.734375 11.941406 -22.550781 11.734375 -22.25 C 11.523438 -21.945312 11.316406 -21.664062 11.109375 -21.40625 C 10.910156 -21.144531 10.789062 -21.015625 10.75 -21.015625 C 10.75 -21.015625 10.785156 -21.082031 10.859375 -21.21875 C 10.929688 -21.351562 11.007812 -21.488281 11.09375 -21.625 C 11.1875 -21.757812 11.234375 -21.835938 11.234375 -21.859375 C 10.640625 -20.984375 10.085938 -20.070312 9.578125 -19.125 C 9.066406 -18.1875 8.570312 -17.238281 8.09375 -16.28125 C 8.175781 -16.28125 8.28125 -16.394531 8.40625 -16.625 C 8.300781 -16.414062 8.25 -16.300781 8.25 -16.28125 C 8.851562 -16.320312 9.46875 -16.347656 10.09375 -16.359375 C 10.71875 -16.367188 11.347656 -16.382812 11.984375 -16.40625 C 12.109375 -16.40625 12.257812 -16.445312 12.4375 -16.53125 C 12.613281 -16.613281 12.710938 -16.539062 12.734375 -16.3125 Z M 6.78125 -14.484375 C 7.40625 -15.828125 8.03125 -17.164062 8.65625 -18.5 C 9.28125 -19.84375 10.007812 -21.117188 10.84375 -22.328125 C 9.59375 -20.546875 8.523438 -18.644531 7.640625 -16.625 C 6.765625 -14.613281 5.890625 -12.625 5.015625 -10.65625 C 3.972656 -8.34375 3.109375 -5.984375 2.421875 -3.578125 C 2.265625 -3.035156 2.117188 -2.484375 1.984375 -1.921875 C 1.847656 -1.367188 1.726562 -0.8125 1.625 -0.25 L 1.78125 -0.84375 C 1.945312 -1.570312 2.148438 -2.300781 2.390625 -3.03125 C 2.640625 -3.769531 2.898438 -4.492188 3.171875 -5.203125 C 3.734375 -6.753906 4.296875 -8.316406 4.859375 -9.890625 C 5.421875 -11.472656 6.0625 -13.003906 6.78125 -14.484375 Z M 8.84375 -17.59375 C 9.007812 -17.945312 9.15625 -18.269531 9.28125 -18.5625 C 9.40625 -18.851562 9.507812 -19.007812 9.59375 -19.03125 Z M 5.609375 -10.75 C 5.609375 -10.789062 5.617188 -10.832031 5.640625 -10.875 C 5.492188 -10.5625 5.363281 -10.25 5.25 -9.9375 C 5.132812 -9.625 5.015625 -9.320312 4.890625 -9.03125 C 5.015625 -9.320312 5.140625 -9.609375 5.265625 -9.890625 C 5.390625 -10.171875 5.503906 -10.457031 5.609375 -10.75 Z M 8.4375 -16.6875 C 8.476562 -16.789062 8.53125 -16.898438 8.59375 -17.015625 C 8.65625 -17.128906 8.707031 -17.25 8.75 -17.375 Z M 1.59375 3.078125 L 1.5 3.015625 C 1.539062 3.054688 1.570312 3.078125 1.59375 3.078125 Z M 1.59375 3.078125 "/></g></g></g></g><g fill="#000000" fill-opacity="1"><g transform="translate(14.113135, 24.326666)"><g><path d="M 14.828125 -7.65625 C 14.847656 -7.46875 14.769531 -7.226562 14.59375 -6.9375 C 14.414062 -6.65625 14.273438 -6.429688 14.171875 -6.265625 C 13.960938 -5.890625 13.710938 -5.53125 13.421875 -5.1875 C 13.128906 -4.84375 12.835938 -4.503906 12.546875 -4.171875 C 12.253906 -3.859375 11.910156 -3.5 11.515625 -3.09375 C 11.128906 -2.6875 10.710938 -2.328125 10.265625 -2.015625 C 9.816406 -1.710938 9.34375 -1.539062 8.84375 -1.5 C 8.507812 -1.476562 8.175781 -1.546875 7.84375 -1.703125 C 7.507812 -1.859375 7.25 -2.097656 7.0625 -2.421875 C 6.851562 -2.816406 6.765625 -3.238281 6.796875 -3.6875 C 6.828125 -4.132812 6.921875 -4.578125 7.078125 -5.015625 C 7.234375 -5.453125 7.375 -5.847656 7.5 -6.203125 C 7.101562 -5.722656 6.703125 -5.238281 6.296875 -4.75 C 5.898438 -4.257812 5.503906 -3.765625 5.109375 -3.265625 C 5.046875 -3.203125 4.878906 -3.03125 4.609375 -2.75 C 4.335938 -2.46875 4.03125 -2.164062 3.6875 -1.84375 C 3.34375 -1.53125 3.03125 -1.28125 2.75 -1.09375 C 2.46875 -0.90625 2.28125 -0.863281 2.1875 -0.96875 C 2.1875 -0.988281 2.234375 -1.019531 2.328125 -1.0625 C 2.429688 -1.101562 2.472656 -1.132812 2.453125 -1.15625 C 2.296875 -1.070312 2.128906 -0.992188 1.953125 -0.921875 C 1.773438 -0.847656 1.601562 -0.8125 1.4375 -0.8125 C 1.457031 -0.789062 1.507812 -0.78125 1.59375 -0.78125 C 1.613281 -0.71875 1.550781 -0.695312 1.40625 -0.71875 C 1.257812 -0.738281 1.109375 -0.78125 0.953125 -0.84375 C 0.796875 -0.90625 0.695312 -0.945312 0.65625 -0.96875 C 0.488281 -1.132812 0.359375 -1.332031 0.265625 -1.5625 C 0.171875 -1.789062 0.101562 -2.007812 0.0625 -2.21875 C -0.0195312 -2.726562 -0.03125 -3.234375 0.03125 -3.734375 C 0.09375 -4.234375 0.1875 -4.722656 0.3125 -5.203125 C 0.4375 -5.703125 0.570312 -6.195312 0.71875 -6.6875 C 0.863281 -7.1875 1.039062 -7.675781 1.25 -8.15625 C 1.351562 -8.40625 1.488281 -8.613281 1.65625 -8.78125 C 1.820312 -8.945312 1.957031 -9.132812 2.0625 -9.34375 C 2.238281 -9.738281 2.445312 -10.160156 2.6875 -10.609375 C 2.925781 -11.066406 3.210938 -11.429688 3.546875 -11.703125 C 3.835938 -11.953125 4.195312 -12.066406 4.625 -12.046875 C 5.050781 -12.023438 5.398438 -11.898438 5.671875 -11.671875 C 5.960938 -11.460938 6.066406 -11.28125 5.984375 -11.125 C 5.898438 -10.976562 5.796875 -10.789062 5.671875 -10.5625 C 5.734375 -10.664062 5.796875 -10.726562 5.859375 -10.75 C 5.878906 -10.75 5.828125 -10.625 5.703125 -10.375 C 5.578125 -10.125 5.445312 -9.875 5.3125 -9.625 C 5.175781 -9.375 5.078125 -9.25 5.015625 -9.25 C 5.015625 -9.25 5.035156 -9.3125 5.078125 -9.4375 C 5.117188 -9.5625 5.160156 -9.664062 5.203125 -9.75 C 4.992188 -9.394531 4.796875 -9.03125 4.609375 -8.65625 C 4.421875 -8.28125 4.242188 -7.90625 4.078125 -7.53125 C 4.140625 -7.613281 4.203125 -7.65625 4.265625 -7.65625 C 4.242188 -7.65625 4.171875 -7.507812 4.046875 -7.21875 C 3.921875 -6.925781 3.78125 -6.578125 3.625 -6.171875 C 3.46875 -5.773438 3.328125 -5.414062 3.203125 -5.09375 C 3.078125 -4.769531 3.003906 -4.578125 2.984375 -4.515625 C 2.941406 -4.367188 2.878906 -4.148438 2.796875 -3.859375 C 2.710938 -3.566406 2.679688 -3.320312 2.703125 -3.125 C 2.722656 -2.925781 2.867188 -2.867188 3.140625 -2.953125 C 3.597656 -3.078125 4.035156 -3.382812 4.453125 -3.875 C 4.867188 -4.363281 5.210938 -4.773438 5.484375 -5.109375 C 5.859375 -5.523438 6.207031 -5.960938 6.53125 -6.421875 C 6.863281 -6.890625 7.195312 -7.351562 7.53125 -7.8125 C 7.757812 -8.164062 8.007812 -8.550781 8.28125 -8.96875 C 8.550781 -9.382812 8.878906 -9.71875 9.265625 -9.96875 C 9.648438 -10.21875 10.101562 -10.269531 10.625 -10.125 C 11.113281 -10 11.359375 -9.769531 11.359375 -9.4375 C 11.359375 -9.101562 11.253906 -8.742188 11.046875 -8.359375 C 10.847656 -7.972656 10.675781 -7.632812 10.53125 -7.34375 C 10.632812 -7.445312 10.6875 -7.488281 10.6875 -7.46875 C 10.75 -7.40625 10.738281 -7.25 10.65625 -7 C 10.570312 -6.757812 10.476562 -6.515625 10.375 -6.265625 C 10.269531 -6.015625 10.195312 -5.835938 10.15625 -5.734375 C 10.070312 -5.441406 9.976562 -5.128906 9.875 -4.796875 C 9.769531 -4.460938 9.707031 -4.128906 9.6875 -3.796875 C 9.664062 -3.421875 9.710938 -3.253906 9.828125 -3.296875 C 9.941406 -3.335938 10.125 -3.453125 10.375 -3.640625 C 10.925781 -4.054688 11.425781 -4.519531 11.875 -5.03125 C 12.320312 -5.539062 12.773438 -6.035156 13.234375 -6.515625 C 13.253906 -6.535156 13.34375 -6.628906 13.5 -6.796875 C 13.65625 -6.972656 13.832031 -7.15625 14.03125 -7.34375 C 14.226562 -7.53125 14.40625 -7.664062 14.5625 -7.75 C 14.71875 -7.832031 14.804688 -7.800781 14.828125 -7.65625 Z M 10.0625 -7.03125 C 10.164062 -7.363281 10.289062 -7.691406 10.4375 -8.015625 C 10.582031 -8.335938 10.71875 -8.664062 10.84375 -9 C 10.738281 -8.75 10.59375 -8.472656 10.40625 -8.171875 C 10.21875 -7.867188 10.054688 -7.570312 9.921875 -7.28125 C 9.785156 -6.988281 9.757812 -6.703125 9.84375 -6.421875 C 9.84375 -6.378906 9.832031 -6.347656 9.8125 -6.328125 C 9.851562 -6.367188 9.875 -6.398438 9.875 -6.421875 C 9.914062 -6.503906 9.953125 -6.601562 9.984375 -6.71875 C 10.015625 -6.84375 10.039062 -6.945312 10.0625 -7.03125 Z M 2.609375 -2.984375 C 2.585938 -3.128906 2.664062 -3.515625 2.84375 -4.140625 C 3.019531 -4.765625 3.210938 -5.378906 3.421875 -5.984375 C 3.253906 -5.566406 3.054688 -5.078125 2.828125 -4.515625 C 2.597656 -3.953125 2.523438 -3.441406 2.609375 -2.984375 Z M 7.5 -6.046875 C 7.539062 -6.171875 7.582031 -6.265625 7.625 -6.328125 C 7.539062 -6.265625 7.5 -6.171875 7.5 -6.046875 Z M 7.5 -6.046875 "/></g></g></g><g fill="#000000" fill-opacity="1"><g transform="translate(26.657171, 24.326666)"><g><path d="M 18.53125 -7.65625 C 18.570312 -7.257812 18.410156 -6.898438 18.046875 -6.578125 C 17.679688 -6.265625 17.375 -5.984375 17.125 -5.734375 C 16.789062 -5.398438 16.46875 -5.046875 16.15625 -4.671875 C 15.84375 -4.296875 15.523438 -3.921875 15.203125 -3.546875 C 14.554688 -2.773438 13.960938 -1.945312 13.421875 -1.0625 C 12.878906 -0.1875 12.285156 0.65625 11.640625 1.46875 C 11.390625 1.78125 11.097656 2.128906 10.765625 2.515625 C 10.441406 2.910156 10.09375 3.242188 9.71875 3.515625 C 9.34375 3.785156 8.953125 3.925781 8.546875 3.9375 C 8.140625 3.945312 7.726562 3.742188 7.3125 3.328125 C 6.863281 2.890625 6.578125 2.34375 6.453125 1.6875 C 6.328125 1.039062 6.285156 0.375 6.328125 -0.3125 C 6.367188 -1 6.410156 -1.613281 6.453125 -2.15625 C 5.992188 -1.695312 5.515625 -1.242188 5.015625 -0.796875 C 4.515625 -0.347656 3.992188 0.0703125 3.453125 0.46875 C 3.160156 0.675781 2.835938 0.867188 2.484375 1.046875 C 2.140625 1.222656 1.78125 1.269531 1.40625 1.1875 C 0.800781 1.0625 0.351562 0.785156 0.0625 0.359375 C -0.226562 -0.0664062 -0.40625 -0.570312 -0.46875 -1.15625 C -0.53125 -1.738281 -0.507812 -2.316406 -0.40625 -2.890625 C -0.300781 -3.472656 -0.15625 -3.972656 0.03125 -4.390625 C 0.238281 -4.867188 0.410156 -5.363281 0.546875 -5.875 C 0.679688 -6.382812 0.882812 -6.894531 1.15625 -7.40625 C 1.46875 -7.96875 1.851562 -8.53125 2.3125 -9.09375 C 2.78125 -9.65625 3.316406 -10.0625 3.921875 -10.3125 C 4.421875 -10.519531 4.894531 -10.507812 5.34375 -10.28125 C 5.789062 -10.050781 6.207031 -9.742188 6.59375 -9.359375 C 6.988281 -8.972656 7.320312 -8.613281 7.59375 -8.28125 C 7.96875 -9.65625 8.410156 -11.003906 8.921875 -12.328125 C 9.429688 -13.660156 9.976562 -14.976562 10.5625 -16.28125 C 10.601562 -16.320312 10.671875 -16.507812 10.765625 -16.84375 C 10.859375 -17.175781 10.96875 -17.382812 11.09375 -17.46875 C 11.03125 -17.425781 10.96875 -17.304688 10.90625 -17.109375 C 10.84375 -16.910156 10.789062 -16.75 10.75 -16.625 C 10.8125 -16.789062 10.890625 -16.960938 10.984375 -17.140625 C 11.078125 -17.316406 11.171875 -17.488281 11.265625 -17.65625 L 11.234375 -17.65625 C 11.273438 -17.695312 11.335938 -17.8125 11.421875 -18 C 11.503906 -18.1875 11.585938 -18.375 11.671875 -18.5625 C 11.753906 -18.75 11.804688 -18.863281 11.828125 -18.90625 C 11.972656 -19.132812 12.125 -19.359375 12.28125 -19.578125 C 12.4375 -19.796875 12.585938 -20.015625 12.734375 -20.234375 C 13.023438 -20.585938 13.351562 -20.914062 13.71875 -21.21875 C 14.082031 -21.519531 14.472656 -21.742188 14.890625 -21.890625 C 15.285156 -22.035156 15.710938 -22.097656 16.171875 -22.078125 C 16.640625 -22.054688 17.066406 -21.945312 17.453125 -21.75 C 17.835938 -21.550781 18.101562 -21.234375 18.25 -20.796875 C 18.457031 -20.203125 18.5 -19.59375 18.375 -18.96875 C 18.25 -18.34375 18.039062 -17.734375 17.75 -17.140625 C 17.457031 -16.546875 17.164062 -16.003906 16.875 -15.515625 C 16.601562 -15.078125 16.320312 -14.632812 16.03125 -14.1875 C 15.75 -13.738281 15.460938 -13.304688 15.171875 -12.890625 L 14.359375 -11.828125 L 14.078125 -11.515625 C 14.117188 -11.597656 14.128906 -11.648438 14.109375 -11.671875 L 13.859375 -11.328125 L 13.890625 -11.328125 L 13.859375 -11.328125 L 13.765625 -11.203125 L 12.421875 -9.375 C 12.503906 -9.476562 12.597656 -9.585938 12.703125 -9.703125 C 12.804688 -9.816406 12.867188 -9.863281 12.890625 -9.84375 C 12.890625 -9.84375 12.78125 -9.703125 12.5625 -9.421875 C 12.34375 -9.140625 12.085938 -8.816406 11.796875 -8.453125 C 11.503906 -8.085938 11.234375 -7.75 10.984375 -7.4375 C 10.742188 -7.125 10.601562 -6.9375 10.5625 -6.875 C 10.164062 -6.382812 9.914062 -5.773438 9.8125 -5.046875 C 9.707031 -4.316406 9.601562 -3.648438 9.5 -3.046875 C 9.476562 -2.898438 9.429688 -2.632812 9.359375 -2.25 C 9.285156 -1.875 9.222656 -1.441406 9.171875 -0.953125 C 9.117188 -0.460938 9.085938 0.0078125 9.078125 0.46875 C 9.066406 0.925781 9.101562 1.304688 9.1875 1.609375 C 9.269531 1.910156 9.414062 2.0625 9.625 2.0625 C 9.769531 2.0625 9.921875 1.960938 10.078125 1.765625 C 10.234375 1.566406 10.351562 1.425781 10.4375 1.34375 C 10.664062 1.09375 10.882812 0.832031 11.09375 0.5625 C 11.3125 0.289062 11.523438 0.0195312 11.734375 -0.25 C 12.148438 -0.8125 12.5625 -1.375 12.96875 -1.9375 C 13.375 -2.507812 13.773438 -3.078125 14.171875 -3.640625 C 14.585938 -4.179688 15.003906 -4.722656 15.421875 -5.265625 C 15.847656 -5.804688 16.289062 -6.332031 16.75 -6.84375 C 16.789062 -6.882812 16.898438 -6.992188 17.078125 -7.171875 C 17.253906 -7.347656 17.441406 -7.523438 17.640625 -7.703125 C 17.835938 -7.878906 18.023438 -7.984375 18.203125 -8.015625 C 18.378906 -8.046875 18.488281 -7.9375 18.53125 -7.6875 Z M 7 -5.578125 L 7 -5.703125 C 7.0625 -5.992188 7.125 -6.269531 7.1875 -6.53125 C 7.25 -6.800781 7.195312 -7.0625 7.03125 -7.3125 C 6.882812 -7.519531 6.738281 -7.738281 6.59375 -7.96875 C 6.457031 -8.195312 6.285156 -8.382812 6.078125 -8.53125 C 5.992188 -8.59375 5.898438 -8.65625 5.796875 -8.71875 C 5.691406 -8.78125 5.585938 -8.789062 5.484375 -8.75 C 5.441406 -8.75 5.410156 -8.738281 5.390625 -8.71875 L 5.546875 -8.8125 C 5.210938 -8.789062 4.921875 -8.570312 4.671875 -8.15625 C 4.421875 -7.738281 4.210938 -7.363281 4.046875 -7.03125 C 3.710938 -6.375 3.398438 -5.703125 3.109375 -5.015625 C 2.816406 -4.328125 2.566406 -3.617188 2.359375 -2.890625 C 2.316406 -2.722656 2.238281 -2.445312 2.125 -2.0625 C 2.019531 -1.6875 1.960938 -1.320312 1.953125 -0.96875 C 1.941406 -0.613281 2.066406 -0.382812 2.328125 -0.28125 C 2.515625 -0.195312 2.742188 -0.238281 3.015625 -0.40625 C 3.285156 -0.570312 3.515625 -0.738281 3.703125 -0.90625 C 3.492188 -0.738281 3.285156 -0.597656 3.078125 -0.484375 C 2.867188 -0.367188 2.691406 -0.320312 2.546875 -0.34375 C 2.203125 -0.363281 2.023438 -0.566406 2.015625 -0.953125 C 2.003906 -1.335938 2.082031 -1.785156 2.25 -2.296875 C 2.425781 -2.816406 2.585938 -3.285156 2.734375 -3.703125 C 2.585938 -3.304688 2.4375 -2.847656 2.28125 -2.328125 C 2.132812 -1.816406 2.0625 -1.375 2.0625 -1 C 2.0625 -0.625 2.210938 -0.414062 2.515625 -0.375 C 2.765625 -0.351562 3.035156 -0.453125 3.328125 -0.671875 C 3.617188 -0.890625 3.90625 -1.132812 4.1875 -1.40625 C 4.46875 -1.675781 4.679688 -1.882812 4.828125 -2.03125 C 5.078125 -2.269531 5.328125 -2.507812 5.578125 -2.75 C 5.828125 -2.988281 6.066406 -3.234375 6.296875 -3.484375 C 6.566406 -3.753906 6.726562 -4.050781 6.78125 -4.375 C 6.84375 -4.695312 6.90625 -5.046875 6.96875 -5.421875 C 6.96875 -5.421875 6.96875 -5.4375 6.96875 -5.46875 C 6.96875 -5.5 6.976562 -5.535156 7 -5.578125 Z M 12.046875 -12.828125 C 12.023438 -12.804688 12.015625 -12.773438 12.015625 -12.734375 L 11.921875 -12.578125 C 11.898438 -12.472656 11.890625 -12.421875 11.890625 -12.421875 C 11.429688 -11.078125 10.988281 -9.726562 10.5625 -8.375 C 10.582031 -8.414062 10.632812 -8.476562 10.71875 -8.5625 C 10.632812 -8.457031 10.5625 -8.359375 10.5 -8.265625 C 10.4375 -8.171875 10.394531 -8.070312 10.375 -7.96875 L 10.5 -8.09375 L 10.71875 -8.375 L 12.328125 -10.4375 L 11.703125 -9.65625 L 11 -8.9375 C 12.300781 -10.550781 13.503906 -12.242188 14.609375 -14.015625 C 14.921875 -14.515625 15.265625 -15.082031 15.640625 -15.71875 C 16.023438 -16.363281 16.347656 -17.019531 16.609375 -17.6875 C 16.867188 -18.351562 16.976562 -19 16.9375 -19.625 C 16.9375 -19.769531 16.914062 -19.925781 16.875 -20.09375 C 16.832031 -20.269531 16.738281 -20.398438 16.59375 -20.484375 C 16.363281 -20.628906 16.117188 -20.597656 15.859375 -20.390625 C 15.609375 -20.191406 15.390625 -19.945312 15.203125 -19.65625 C 15.015625 -19.363281 14.867188 -19.132812 14.765625 -18.96875 C 14.203125 -18.070312 13.710938 -17.125 13.296875 -16.125 C 12.878906 -15.132812 12.492188 -14.140625 12.140625 -13.140625 L 12.140625 -13.109375 C 12.140625 -13.109375 12.132812 -13.097656 12.125 -13.078125 C 12.113281 -13.054688 12.097656 -13.023438 12.078125 -12.984375 L 12.078125 -12.953125 C 12.054688 -12.929688 12.046875 -12.890625 12.046875 -12.828125 Z M 9.40625 -10.25 C 9.445312 -10.332031 9.5 -10.460938 9.5625 -10.640625 C 9.625 -10.816406 9.65625 -10.96875 9.65625 -11.09375 C 9.632812 -10.96875 9.566406 -10.832031 9.453125 -10.6875 C 9.335938 -10.539062 9.257812 -10.414062 9.21875 -10.3125 C 9.15625 -10.125 9.132812 -9.9375 9.15625 -9.75 C 9.175781 -9.5625 9.125 -9.382812 9 -9.21875 C 9.039062 -9.21875 9.0625 -9.238281 9.0625 -9.28125 C 9.101562 -9.320312 9.164062 -9.472656 9.25 -9.734375 C 9.332031 -9.992188 9.382812 -10.164062 9.40625 -10.25 Z M 4.421875 -1.5625 L 3.921875 -1.125 L 3.953125 -1.125 C 4.179688 -1.3125 4.410156 -1.503906 4.640625 -1.703125 C 4.867188 -1.898438 5.085938 -2.109375 5.296875 -2.328125 C 5.460938 -2.492188 5.726562 -2.71875 6.09375 -3 C 6.457031 -3.28125 6.648438 -3.523438 6.671875 -3.734375 C 5.960938 -2.984375 5.210938 -2.257812 4.421875 -1.5625 Z M 9.96875 -13.109375 C 10.050781 -13.335938 10.144531 -13.582031 10.25 -13.84375 C 10.351562 -14.101562 10.445312 -14.359375 10.53125 -14.609375 C 10.445312 -14.398438 10.359375 -14.191406 10.265625 -13.984375 C 10.171875 -13.773438 10.070312 -13.585938 9.96875 -13.421875 C 9.863281 -13.210938 9.78125 -12.988281 9.71875 -12.75 C 9.65625 -12.507812 9.582031 -12.273438 9.5 -12.046875 C 9.6875 -12.398438 9.84375 -12.753906 9.96875 -13.109375 Z M 12.015625 -12.734375 L 11.921875 -12.578125 C 11.921875 -12.554688 11.914062 -12.53125 11.90625 -12.5 C 11.894531 -12.46875 11.890625 -12.441406 11.890625 -12.421875 Z M 5.234375 -8.59375 C 5.191406 -8.550781 5.148438 -8.503906 5.109375 -8.453125 C 5.066406 -8.398438 5.023438 -8.375 4.984375 -8.375 C 5.003906 -8.375 5.035156 -8.398438 5.078125 -8.453125 C 5.117188 -8.503906 5.171875 -8.550781 5.234375 -8.59375 Z M 6.109375 -8.65625 L 6.296875 -8.53125 C 6.253906 -8.570312 6.191406 -8.613281 6.109375 -8.65625 Z M 12.328125 -9.21875 C 12.328125 -9.21875 12.332031 -9.226562 12.34375 -9.25 C 12.351562 -9.269531 12.367188 -9.289062 12.390625 -9.3125 C 12.347656 -9.269531 12.328125 -9.238281 12.328125 -9.21875 Z M 12.390625 -9.3125 C 12.390625 -9.3125 12.394531 -9.316406 12.40625 -9.328125 C 12.414062 -9.335938 12.421875 -9.351562 12.421875 -9.375 Z M 12.390625 -9.3125 "/></g></g></g><g fill="#000000" fill-opacity="1"><g transform="translate(42.901693, 24.326666)"><g><path d="M 12.015625 -7.75 C 12.078125 -7.625 12.09375 -7.519531 12.0625 -7.4375 C 12.03125 -7.351562 11.972656 -7.257812 11.890625 -7.15625 L 10.90625 -5.859375 L 9.21875 -3.671875 C 9.007812 -3.398438 8.78125 -3.128906 8.53125 -2.859375 C 8.28125 -2.585938 8.039062 -2.300781 7.8125 -2 C 7.582031 -1.6875 7.359375 -1.367188 7.140625 -1.046875 C 6.921875 -0.722656 6.671875 -0.414062 6.390625 -0.125 C 6.117188 0.164062 5.816406 0.457031 5.484375 0.75 C 5.148438 1.039062 4.796875 1.289062 4.421875 1.5 C 3.921875 1.769531 3.390625 1.820312 2.828125 1.65625 C 2.421875 1.550781 2.039062 1.378906 1.6875 1.140625 C 1.332031 0.898438 1.019531 0.625 0.75 0.3125 C 0.664062 0.207031 0.59375 0.113281 0.53125 0.03125 C 0.46875 -0.0507812 0.425781 -0.15625 0.40625 -0.28125 C 0.382812 -0.382812 0.367188 -0.488281 0.359375 -0.59375 C 0.347656 -0.695312 0.34375 -0.800781 0.34375 -0.90625 C 0.320312 -1.09375 0.335938 -1.265625 0.390625 -1.421875 C 0.441406 -1.578125 0.476562 -1.75 0.5 -1.9375 C 0.539062 -2.15625 0.597656 -2.359375 0.671875 -2.546875 C 0.742188 -2.734375 0.789062 -2.929688 0.8125 -3.140625 C 0.851562 -3.367188 0.898438 -3.582031 0.953125 -3.78125 C 1.003906 -3.976562 1.039062 -4.179688 1.0625 -4.390625 C 1.082031 -4.578125 1.085938 -4.769531 1.078125 -4.96875 C 1.066406 -5.164062 1.082031 -5.359375 1.125 -5.546875 C 1.164062 -5.671875 1.222656 -5.796875 1.296875 -5.921875 C 1.367188 -6.046875 1.425781 -6.179688 1.46875 -6.328125 C 1.425781 -6.242188 1.375 -6.15625 1.3125 -6.0625 C 1.25 -5.96875 1.207031 -5.878906 1.1875 -5.796875 C 1.144531 -5.671875 1.101562 -5.546875 1.0625 -5.421875 C 1.019531 -5.296875 0.976562 -5.179688 0.9375 -5.078125 C 0.894531 -4.953125 0.859375 -4.832031 0.828125 -4.71875 C 0.796875 -4.601562 0.757812 -4.484375 0.71875 -4.359375 C 0.65625 -4.210938 0.597656 -4.078125 0.546875 -3.953125 C 0.492188 -3.828125 0.457031 -3.679688 0.4375 -3.515625 C 0.414062 -3.367188 0.410156 -3.226562 0.421875 -3.09375 C 0.429688 -2.957031 0.425781 -2.816406 0.40625 -2.671875 C 0.382812 -2.523438 0.359375 -2.390625 0.328125 -2.265625 C 0.296875 -2.148438 0.28125 -2.019531 0.28125 -1.875 C 0.28125 -1.832031 0.289062 -1.773438 0.3125 -1.703125 C 0.332031 -1.628906 0.34375 -1.570312 0.34375 -1.53125 C 0.34375 -1.46875 0.332031 -1.398438 0.3125 -1.328125 C 0.289062 -1.253906 0.28125 -1.175781 0.28125 -1.09375 C 0.28125 -0.945312 0.289062 -0.804688 0.3125 -0.671875 C 0.332031 -0.535156 0.351562 -0.382812 0.375 -0.21875 C 0.125 -0.65625 0 -1.097656 0 -1.546875 C 0 -1.992188 0.0390625 -2.453125 0.125 -2.921875 C 0.207031 -3.398438 0.285156 -3.863281 0.359375 -4.3125 C 0.429688 -4.757812 0.519531 -5.210938 0.625 -5.671875 C 0.832031 -6.597656 1.144531 -7.503906 1.5625 -8.390625 C 1.976562 -9.273438 2.484375 -10.082031 3.078125 -10.8125 C 3.554688 -11.46875 4.125 -12 4.78125 -12.40625 C 5.4375 -12.8125 6.1875 -12.929688 7.03125 -12.765625 C 7.34375 -12.703125 7.65625 -12.597656 7.96875 -12.453125 C 8.28125 -12.304688 8.539062 -12.097656 8.75 -11.828125 C 8.976562 -11.535156 9.09375 -11.207031 9.09375 -10.84375 C 9.09375 -10.488281 9.039062 -10.132812 8.9375 -9.78125 C 8.726562 -9.175781 8.394531 -8.628906 7.9375 -8.140625 C 7.476562 -7.648438 7.003906 -7.195312 6.515625 -6.78125 C 6.304688 -6.601562 6.09375 -6.429688 5.875 -6.265625 C 5.65625 -6.097656 5.429688 -5.941406 5.203125 -5.796875 C 5.054688 -5.710938 4.894531 -5.632812 4.71875 -5.5625 C 4.539062 -5.488281 4.367188 -5.421875 4.203125 -5.359375 L 3.671875 -5.171875 C 3.566406 -5.148438 3.492188 -5.132812 3.453125 -5.125 C 3.410156 -5.113281 3.367188 -5.054688 3.328125 -4.953125 C 3.242188 -4.804688 3.210938 -4.65625 3.234375 -4.5 C 3.253906 -4.34375 3.242188 -4.179688 3.203125 -4.015625 C 3.179688 -3.804688 3.144531 -3.609375 3.09375 -3.421875 C 3.039062 -3.234375 2.992188 -3.035156 2.953125 -2.828125 C 2.867188 -2.453125 2.789062 -2.035156 2.71875 -1.578125 C 2.644531 -1.128906 2.648438 -0.707031 2.734375 -0.3125 C 2.816406 0.0820312 3.019531 0.265625 3.34375 0.234375 C 3.664062 0.203125 4.019531 0.0546875 4.40625 -0.203125 C 4.789062 -0.460938 5.148438 -0.738281 5.484375 -1.03125 C 5.816406 -1.320312 6.046875 -1.519531 6.171875 -1.625 C 6.335938 -1.769531 6.488281 -1.914062 6.625 -2.0625 C 6.769531 -2.21875 6.914062 -2.367188 7.0625 -2.515625 C 7.144531 -2.617188 7.226562 -2.710938 7.3125 -2.796875 C 7.394531 -2.878906 7.46875 -2.960938 7.53125 -3.046875 C 7.53125 -3.046875 7.539062 -3.078125 7.5625 -3.140625 C 7.582031 -3.203125 7.59375 -3.242188 7.59375 -3.265625 C 7.78125 -3.554688 7.992188 -3.847656 8.234375 -4.140625 C 8.472656 -4.429688 8.707031 -4.710938 8.9375 -4.984375 C 9.226562 -5.316406 9.5 -5.65625 9.75 -6 C 10 -6.34375 10.257812 -6.695312 10.53125 -7.0625 C 10.632812 -7.207031 10.765625 -7.390625 10.921875 -7.609375 C 11.078125 -7.828125 11.25 -7.984375 11.4375 -8.078125 C 11.632812 -8.171875 11.816406 -8.070312 11.984375 -7.78125 L 11.984375 -7.75 C 12.003906 -7.726562 12.015625 -7.726562 12.015625 -7.75 Z M 4.234375 -7.40625 C 4.148438 -7.257812 4.082031 -7.09375 4.03125 -6.90625 C 3.976562 -6.726562 3.910156 -6.554688 3.828125 -6.390625 C 4.847656 -6.941406 5.722656 -7.644531 6.453125 -8.5 L 7 -9.1875 C 7.039062 -9.269531 7.097656 -9.34375 7.171875 -9.40625 C 7.242188 -9.46875 7.289062 -9.539062 7.3125 -9.625 C 7.332031 -9.707031 7.332031 -9.785156 7.3125 -9.859375 C 7.289062 -9.929688 7.289062 -10.007812 7.3125 -10.09375 L 7.4375 -10.75 C 7.457031 -10.914062 7.425781 -11.140625 7.34375 -11.421875 C 7.257812 -11.710938 7.101562 -11.835938 6.875 -11.796875 C 6.757812 -11.773438 6.648438 -11.707031 6.546875 -11.59375 C 6.441406 -11.476562 6.359375 -11.378906 6.296875 -11.296875 L 5.734375 -10.53125 C 5.398438 -10.050781 5.128906 -9.550781 4.921875 -9.03125 C 4.710938 -8.507812 4.492188 -8 4.265625 -7.5 C 4.265625 -7.5 4.265625 -7.492188 4.265625 -7.484375 C 4.265625 -7.472656 4.253906 -7.445312 4.234375 -7.40625 Z M 4.234375 -7.40625 "/></g></g></g></g></g></g></svg>