<svg xmlns="http://www.w3.org/2000/svg" xmlns:xlink="http://www.w3.org/1999/xlink" width="500" zoomAndPan="magnify" viewBox="0 0 375 374.999991" height="500" preserveAspectRatio="xMidYMid meet" version="1.0"><defs><clipPath id="4ecd11bd3c"><path d="M 187.5 0 C 83.945312 0 0 83.945312 0 187.5 C 0 291.054688 83.945312 375 187.5 375 C 291.054688 375 375 291.054688 375 187.5 C 375 83.945312 291.054688 0 187.5 0 Z M 187.5 0 " clip-rule="nonzero"/></clipPath><clipPath id="7a8e0dccaa"><path d="M 0 0 L 375 0 L 375 375 L 0 375 Z M 0 0 " clip-rule="nonzero"/></clipPath><clipPath id="03ed9e9902"><path d="M 187.5 0 C 83.945312 0 0 83.945312 0 187.5 C 0 291.054688 83.945312 375 187.5 375 C 291.054688 375 375 291.054688 375 187.5 C 375 83.945312 291.054688 0 187.5 0 Z M 187.5 0 " clip-rule="nonzero"/></clipPath><clipPath id="bacf1e8589"><rect x="0" width="375" y="0" height="375"/></clipPath><clipPath id="d921b1b1de"><path d="M 86.410156 63.675781 L 288.910156 63.675781 L 288.910156 283.425781 L 86.410156 283.425781 Z M 86.410156 63.675781 " clip-rule="nonzero"/></clipPath></defs><g clip-path="url(#4ecd11bd3c)"><g transform="matrix(1, 0, 0, 1, 0, 0)"><g clip-path="url(#bacf1e8589)"><g clip-path="url(#7a8e0dccaa)"><g clip-path="url(#03ed9e9902)"><rect x="-82.5" width="540" fill="#d8a527" height="539.999987" y="-82.499998" fill-opacity="1"/></g></g></g></g></g><g clip-path="url(#d921b1b1de)"><path fill="#000000" d="M 288.898438 263.582031 L 288.898438 261.363281 C 288.898438 247.734375 286.222656 234.503906 280.9375 222.042969 C 275.839844 210.015625 268.539062 199.214844 259.246094 189.941406 C 249.953125 180.671875 239.128906 173.390625 227.070312 168.300781 C 226.277344 167.96875 225.480469 167.644531 224.679688 167.332031 C 226.195312 166.09375 227.65625 164.777344 229.054688 163.378906 C 234.429688 158.019531 238.648438 151.773438 241.597656 144.820312 C 244.652344 137.609375 246.203125 129.960938 246.203125 122.082031 C 246.203125 114.203125 244.652344 106.550781 241.597656 99.34375 C 238.648438 92.386719 234.429688 86.144531 229.054688 80.78125 C 223.683594 75.421875 217.425781 71.210938 210.453125 68.269531 C 203.226562 65.222656 195.558594 63.675781 187.660156 63.675781 C 179.765625 63.675781 172.097656 65.222656 164.871094 68.269531 C 157.898438 71.210938 151.640625 75.421875 146.265625 80.78125 C 140.894531 86.144531 136.675781 92.386719 133.726562 99.34375 C 130.671875 106.550781 129.121094 114.203125 129.121094 122.082031 C 129.121094 129.960938 130.671875 137.609375 133.726562 144.820312 C 136.675781 151.773438 140.894531 158.019531 146.265625 163.378906 C 147.667969 164.777344 149.128906 166.09375 150.644531 167.332031 C 149.84375 167.644531 149.042969 167.96875 148.253906 168.300781 C 136.195312 173.390625 125.371094 180.671875 116.078125 189.941406 C 106.78125 199.214844 99.484375 210.015625 94.386719 222.042969 C 89.101562 234.503906 86.425781 247.734375 86.425781 261.363281 L 86.425781 263.582031 C 86.425781 273.949219 94.398438 282.492188 104.550781 283.429688 L 272.148438 283.253906 L 272.210938 283.246094 C 273.953125 283.066406 275.644531 282.550781 277.191406 281.726562 C 284.089844 278.582031 288.898438 271.632812 288.898438 263.582031 Z M 144.515625 140.265625 C 142.074219 134.507812 140.835938 128.386719 140.835938 122.082031 C 140.835938 115.773438 142.074219 109.65625 144.515625 103.894531 C 146.875 98.332031 150.25 93.335938 154.550781 89.046875 C 158.851562 84.753906 163.859375 81.386719 169.433594 79.035156 C 175.207031 76.597656 181.339844 75.363281 187.660156 75.363281 C 193.984375 75.363281 200.117188 76.597656 205.890625 79.035156 C 211.464844 81.386719 216.472656 84.753906 220.773438 89.046875 C 225.074219 93.335938 228.449219 98.332031 230.808594 103.898438 C 233.25 109.65625 234.488281 115.773438 234.488281 122.082031 C 234.488281 128.386719 233.25 134.507812 230.808594 140.265625 C 228.449219 145.828125 225.074219 150.824219 220.773438 155.117188 C 216.472656 159.40625 211.464844 162.773438 205.890625 165.128906 C 200.117188 167.5625 193.984375 168.800781 187.660156 168.800781 C 181.339844 168.800781 175.207031 167.5625 169.433594 165.128906 C 163.859375 162.773438 158.851562 159.40625 154.550781 155.117188 C 150.25 150.824219 146.875 145.828125 144.515625 140.265625 Z M 277.183594 263.582031 C 277.183594 268.128906 273.476562 271.828125 268.921875 271.828125 L 106.402344 271.828125 C 101.84375 271.828125 98.136719 268.128906 98.136719 263.582031 L 98.136719 261.363281 C 98.136719 249.304688 100.503906 237.609375 105.171875 226.597656 C 109.683594 215.960938 116.136719 206.410156 124.359375 198.207031 C 132.578125 190.003906 142.152344 183.5625 152.816406 179.066406 C 155.164062 178.074219 157.578125 177.175781 159.988281 176.390625 C 159.992188 176.390625 159.992188 176.390625 159.992188 176.390625 C 160.832031 176.117188 161.6875 175.855469 162.535156 175.609375 C 162.851562 175.515625 163.148438 175.398438 163.4375 175.261719 C 163.910156 175.476562 164.390625 175.6875 164.871094 175.890625 C 172.097656 178.941406 179.765625 180.484375 187.660156 180.484375 C 195.558594 180.484375 203.226562 178.941406 210.453125 175.890625 C 210.933594 175.6875 211.410156 175.476562 211.886719 175.261719 C 212.171875 175.398438 212.472656 175.515625 212.789062 175.609375 C 216.070312 176.566406 219.339844 177.726562 222.507812 179.066406 C 233.167969 183.5625 242.742188 190.003906 250.964844 198.207031 C 259.1875 206.410156 265.640625 215.960938 270.148438 226.597656 C 274.816406 237.609375 277.183594 249.304688 277.183594 261.363281 Z M 277.183594 263.582031 " fill-opacity="1" fill-rule="nonzero"/></g></svg>