<svg xmlns="http://www.w3.org/2000/svg" xmlns:xlink="http://www.w3.org/1999/xlink" width="500" zoomAndPan="magnify" viewBox="0 0 375 374.999991" height="500" preserveAspectRatio="xMidYMid meet" version="1.0"><defs><clipPath id="124d066c29"><path d="M 6.621094 6.621094 L 368.378906 6.621094 L 368.378906 368.378906 L 6.621094 368.378906 Z M 6.621094 6.621094 " clip-rule="nonzero"/></clipPath><clipPath id="a626776dd0"><path d="M 187.5 6.621094 C 87.601562 6.621094 6.621094 87.601562 6.621094 187.5 C 6.621094 287.398438 87.601562 368.378906 187.5 368.378906 C 287.398438 368.378906 368.378906 287.398438 368.378906 187.5 C 368.378906 87.601562 287.398438 6.621094 187.5 6.621094 Z M 187.5 6.621094 " clip-rule="nonzero"/></clipPath><clipPath id="8ab0443446"><path d="M 0.621094 0.621094 L 362.378906 0.621094 L 362.378906 362.378906 L 0.621094 362.378906 Z M 0.621094 0.621094 " clip-rule="nonzero"/></clipPath><clipPath id="8824cfd1ef"><path d="M 181.5 0.621094 C 81.601562 0.621094 0.621094 81.601562 0.621094 181.5 C 0.621094 281.398438 81.601562 362.378906 181.5 362.378906 C 281.398438 362.378906 362.378906 281.398438 362.378906 181.5 C 362.378906 81.601562 281.398438 0.621094 181.5 0.621094 Z M 181.5 0.621094 " clip-rule="nonzero"/></clipPath><clipPath id="ffd4ee9289"><rect x="0" width="363" y="0" height="363"/></clipPath><clipPath id="706d0d151e"><path d="M 65 61.078125 L 309 61.078125 L 309 313.828125 L 65 313.828125 Z M 65 61.078125 " clip-rule="nonzero"/></clipPath></defs><g clip-path="url(#124d066c29)"><g clip-path="url(#a626776dd0)"><g transform="matrix(1, 0, 0, 1, 6, 6)"><g clip-path="url(#ffd4ee9289)"><g clip-path="url(#8ab0443446)"><g clip-path="url(#8824cfd1ef)"><path fill="#d8a527" d="M 0.621094 0.621094 L 362.378906 0.621094 L 362.378906 362.378906 L 0.621094 362.378906 Z M 0.621094 0.621094 " fill-opacity="1" fill-rule="nonzero"/></g></g></g></g></g></g><g clip-path="url(#706d0d151e)"><path fill="#000000" d="M 305.0625 293.554688 L 244.488281 235.378906 C 262.480469 216.136719 272.339844 191.179688 272.339844 164.707031 C 272.339844 138.230469 261.542969 111.007812 241.976562 91.429688 C 222.390625 71.847656 196.359375 61.078125 168.675781 61.078125 C 140.996094 61.078125 114.960938 71.847656 95.375 91.429688 C 75.789062 111.007812 65.015625 137.03125 65.015625 164.707031 C 65.015625 192.378906 75.789062 218.402344 95.375 237.984375 C 114.960938 257.5625 140.996094 268.335938 168.675781 268.335938 C 189.554688 268.335938 209.480469 262.207031 226.421875 250.796875 L 288.683594 310.585938 C 290.894531 312.703125 293.800781 313.882812 296.875 313.882812 C 299.945312 313.882812 303.1875 312.550781 305.402344 310.246094 C 309.917969 305.542969 309.769531 298.050781 305.0625 293.535156 Z M 214.21875 232.738281 C 201.195312 241.46875 185.542969 246.5625 168.675781 246.5625 C 123.453125 246.5625 86.8125 209.914062 86.8125 164.722656 C 86.8125 119.53125 123.453125 82.867188 168.675781 82.867188 C 213.902344 82.867188 250.542969 119.515625 250.542969 164.707031 C 250.542969 187.113281 241.527344 207.425781 226.925781 222.207031 C 223.066406 226.121094 218.792969 229.664062 214.203125 232.738281 Z M 214.21875 232.738281 " fill-opacity="1" fill-rule="nonzero"/></g></svg>